<mxfile host="app.diagrams.net" modified="2021-10-13T08:28:50.429Z" agent="5.0 (Macintosh; Intel Mac OS X 10_15_7) AppleWebKit/537.36 (KHTML, like Gecko) Chrome/94.0.4606.81 Safari/537.36" etag="7nkQMGpM5xLVZJMHZRtD" version="15.5.2" type="github">
  <diagram id="6uHckrrtmrdKAgOUPoa5" name="Page-1">
    <mxGraphModel dx="4173" dy="1851" grid="1" gridSize="10" guides="1" tooltips="1" connect="1" arrows="1" fold="1" page="1" pageScale="1" pageWidth="827" pageHeight="1169" math="0" shadow="0">
      <root>
        <mxCell id="0" />
        <mxCell id="1" parent="0" />
        <mxCell id="aRfbpxfdnNTo8kCvjEgf-21" value="" style="rounded=0;whiteSpace=wrap;html=1;" parent="1" vertex="1">
          <mxGeometry x="-490" width="1140" height="840" as="geometry" />
        </mxCell>
        <mxCell id="aRfbpxfdnNTo8kCvjEgf-20" value="" style="rounded=0;whiteSpace=wrap;html=1;" parent="1" vertex="1">
          <mxGeometry x="-120" y="160" width="550" height="400" as="geometry" />
        </mxCell>
        <mxCell id="aRfbpxfdnNTo8kCvjEgf-3" value="" style="whiteSpace=wrap;html=1;shape=mxgraph.basic.isocube;isoAngle=15;fillColor=#e1d5e7;strokeColor=#9673a6;" parent="1" vertex="1">
          <mxGeometry x="80" y="240" width="80" height="80" as="geometry" />
        </mxCell>
        <mxCell id="aRfbpxfdnNTo8kCvjEgf-5" value="" style="shape=image;verticalLabelPosition=bottom;labelBackgroundColor=#ffffff;verticalAlign=top;aspect=fixed;imageAspect=0;image=data:image/png,iVBORw0KGgoAAAANSUhEUgAAAgAAAAIACAYAAAD0eNT6AAAABHNCSVQICAgIfAhkiAAAAAlwSFlzAAALEwAACxMBAJqcGAAAIABJREFUeJzs3Xd8XGeVP/7P89w2M+rdVbIcS7Kd2E7iBFhI4vRqAml2nARSbNhdFli2wvKDBZayBdhlWXaXH3EaSRZCem8QklDTY8exLbk7buoa9bnlOd8/7siRbdlWmZk7c+e8Xy9eNpI8OlG599znOc85AGOMMcYYY4wxxhhjjDHGGGOMMcYYY4wxxhhjjDHGGGOMMcYYY4wxxhhjjDHGGGOMMcYYY4wxxhhjjDHGGGOMMcYYY4wxxhhjjDHGGGOMMcYYY4wxxhhjjDHGGGOMMcYYY4wxxhhjjDHGGGOMMcYYY4wxxhhjjDHGGGOMMcYYY4wxxhhjjDHGGGOMMcYYY4wxxhhjjDHGGGOMMcYYY4wxxhhjjDHGGGOMMcYYY4wxxhhjjDHGGGOMMcYYY4wxxhhjjDHGGGOMsVwigg6AMZZ9CJDvLlwYU5pm6BFHWsp2ZYeXmLNrV0IAFHR8jLGp4wSAsTxDgNh06vxp0lELoaGJlJgnBNUpJWZJqBpIVACycMx/rJSrIHskqBUC+0iI3URimwC1gLBh/vzmreJ+eBn+T2KMTQInAIyF3MbT51eIBH1YgD4IwukK4lQpUZmOz6UUhqSgtyHoVUD8nqT47YK3mvel43MxxqaGEwDGQmbDwoXlUldnC9C5guhsSHFisBGpFkC8AOBZaakXGl/d2htsPIwxgBMAxnIeAbL55MalROIyABcTcLoEZNBxjUkpV0n5slB4DBKPLljXvDPokBjLV5wAMJaDdtTVRexS8zwF+XEBtRyQ04KOaXLoTUXyAaXJ+096a+PWoKNhLJ9wAsBYjnh78eKCiExcSoSrBNRlRy3Uy1n0JpH4me659zW8u+29oKNhLOw4AWAsi+3+0KzowGDBpQJYqQjLpUQ06JjSTQEklXoJQtxjGO4DJ7yxPR50TIyFEScAjGWZ15cuNYq83gs8T66SUn08fE/646eAYQE8IojuampqeZ6PGDKWOpwAMJYFCBAtixs+QBA3KBIrpURV0DFlHaX2kZQ/hcKdC95pbg46HMZyHScAjAWoeVHDXBLiBhDdACkbgo4nZxD9QQi6Q1h0Hx8rZGxyOAFgLMO2LZ1b4rraCg/ykxI4I+h4cplSGBISDwC4ff665pcFoIKOibFcwQkAYxlA10Db3Nx0PgRuIuDjEogEHVPYKGC7AG7XlHdX4ztb9wQdD2PZjhMAxtKo+ZSGBcqTNwpSn4CUM4KOJx8ofxXgOSlwu+z3HmvcujURdEyMZSNOABhLsR1L6kqHKXItBG4SwAeDjievkeokyLsJ4raF6zdvCDocxrIJJwCMpQBdA21Ty/zzJNRNCuIKXuLPPkrhVSHFbZrl/pwLBxnjBICxKdlwysJ5uufepIS4UQKzgo6HjYOiQQj8AsBtTetbficACjokxoLACQBjE7SpqakIFq5JLvGfGXQ8bCpUM0He5njGTxdv2NAadDSMZRInAIyNAwGiZVHDmSTEzRB0DSALgo6JpZBSLkE+LjW1trFhy7PccZDlA04AGDuGlkXzZnlSu1EQ3QQh5gUdD0s/pbBXCroDwO3z17fsCDoextKFEwDGDtMyb56lCrXLFeEWABdKQAYdEwsGEX4pQGvloHqEjxOysOEEgLGk5iUNJxPELQBdD8jyoONh2UR1Ecmf8nFCFiacALC8tmHhwnLdcFcRxGoBnBJ0PCz7EfCKULSWbHHfgubmvqDjYWyyOAFgeYcAuenk+ecJolsIuEICVtAxsVykBgjy56TE2gXvbH6FjxOyXMMJAMsbm5Y0zQFwkyC6GULUBh0PCxFF70JiLXTcM/+Nlo6gw2FsPDgBYKG2o64uYpeYH1eQq0ngPMk/8yytlE2QD0uh1ja+veUFnk7IshlfDFkotSyed4oHbTUI1wuJ0qDjYXlIqZ0k5W0S6o6mdVv2Bh0OY4fjBICFxoaFC8uloa4TilYLiZODjmcyzNo62Hv2AIr70ISFApQEPQWBtftLpj95zksvuUHHxBjACQDLcWEr6Cs44yxM++o/If7oQ4g/8iCcffzgGCpK7YcUd0pX3db47tZtQYfD8hsnACwnvXvKgjrN824C0c2Qsi7oeFJGCMz+yZ2Inf5BgAgDr/wB8YfuR/+LvwLZdtDRsVRS6tcK2q3R3qGH63ftGg46HJZ/OAFgOaNl3jxLxeTHAaxWQpwf1oK+yImLUHfv/Ye8zYv3oPfxR9Dz0AOwt28NKLLMMmvrIKIxJJo3BR1KmqkuQNyjSN7KTYZYJoXyAsrCZfNJjYuhYTVAN+RLh74Z//YfKLrwkjHfN7T+bcQf/AX6nn8GanAww5Gllzl3HorOvxBF518Eq7EJO6+5HIktLUGHlTEEvCKIbnVd/b6TNm7sDzoeFm6cALCstG3p3BLbMVYJqNUQ8rSg48k0c3Yt5jzyNISmHfVj1MAAep95EvGH7sfwxg0A5WAfGiFgNTSi6PyLUHTBRTDrTzj4rqE3X8fuW24IMLggqX4i+TMp1NrGdVte4yZDLB04AWBZgwCx6eT5Zwmi1aRwtZSIBh1TkKq/9FWUXXv9uD420dKM+MP3o/epx+HF42mObIqEQGTBQhSel7zp145dwrHvS3+DvmeezHBw2Ui9QyRv9Vzt3pM2buwKOhoWHpwAsMBtOqVpBnniRgl1C4/cfZ9WXoG5TzwPGYuN+9+QbaPvV88h/tD9GHzjNUBlSR8aIRA5afHBJ31jxsxjfrjb2YntF58NcpwMBZj9FJCQpB4gIdfOX9f8Eq8KsKniBIAF4vWlS41Ct+8yAKuVEpdIiaOvdeexik9/BpWf+fyk/q3z3m7EH3kA8UcfhtvRnuLIxkFKRJec4t/0z7sA+rTp4/6nnT/5H3T8zw/TGFyOU2oLpLjN9sw7F2/Y0Bp0OCw3cQLAMmrToqYmCNwiBN0IiJqg48l2MhpF/ePPQ6+snPyLKA/9L7+E+MP3Y+C3L4O8NDYZkhpipy5F0QUXofC8C6FXVk38NZSHbZecB7f1QOrjCxulXIJ8XIBubZrf8py4H9xBio0bJwAs7d5evLjAEolrCFgtgTOCjifXlF69EjVf+UZKXsvtaEf8kYcQf/RBOO/tTslrCl1H7LQPoPCCi1F07vnQyqZ2UKPvV89j3998LiWx5RMC3gNwu6drt5/0xsbUfHNZqHECwNKCANGypOF0IrEaglYBsijomHKV0HXMefAJmHVzUvq6g6/+EfGH70ffC78EJRITi8kwEPvgh1F0/oUoPOd8aCUlKYvrvU/fhMFX/5iy18s3yq8NeBYkbh00Ch4/7Y03uJCCjYkTAJZSG0+fXyGG6QYh1RpAnhR0PGFRdN4FmPH9/0rLa3u9veh94lHEH77/mGfuhWWh4E8+gqLzL0Lh2edCFqY+p7N3bMeOKy/LzSONWUgBbZLoLgW5duH6zfnTUIGNCycAbMoIkJuWzD8filZLqT4OSDPomEJHCNTe9TNEF6d3xtHwhvXoeegB9D37JNTAAGQkgoIzzkLR+Reh4KxzJnQiYTLa/vVb6P7ZPWn9HPmKgJcF6NZYdPDB2j/uGQo6HhY8TgDYpG1YurBWd9ybQ9ePP0tFT1mK2jvuzcjnUkNDGF7/NiJLToGMRDL2ObddcBZUf19GPl++IoUeIegeIWlt09tb1gUdDwsOJwBsQjYsXGhqmne5kGqNgrwwrP34s9XMH/wPCs8+N+gw0qLn/p+j9dtfDzqMvKIUXhNSrMUw/WxBczNnXnmGL95sXFpOnrfQI201KXxSSkzhTBqbCnPuPNQ/8BggZdChpFy+9f3PLmqAIH8uSd3auH7Lq9xkKD9wAsCOasPChYW67q4EsBpC/EnQ8TDftH/8JkquvCboMFIqv/v+Zxu1Idl6+B5uPRxunACwQxAgNi2a/0EhaY2AWgnIwqBjYofSq2sw9/FnIazM7M1nwr4v/jX6nn0q6DDYKH7rYXqQhLiVWw+HEycADACweWljJVx8AgqrIcWJQcfDjq3yc3+NitWfDjqMlHA7OrD9knO47382I9oKgbWuo9910saN3KIxJDgByGOHHN+DugJSGkHHxMZHFhZh7pPPQyspDTqUKeO+/7lDKXhC4HEp1a2NDVue5dbDuY0TgDy05cQTZnuadjOIbuHjezlICESXnILqv/sHRE5cFHQ0U6M8bLv4XLhtPM8m1yhgjwBuV1LefuJbm3YFHQ+bOE4A8sSGhQtNTfc+SgKrAVzMx/dyjzmnHsWXfhTFl10OY+asoMNJib5fPod9fzu5aYcsOyiAJNRzpORaz9MeO2njRjvomNj48E0g5JpPaVhASqxWSnxSSkxiNBsLklZegeKLL0XxZZfn/tP+GLjvf7gohXYp6E4icduCd5qbg46HHRsnACG0YeHCQk33Vgio1RDyw0HHwyZGRiIoPOc8FF92OQo+fAYgtaBDSgt7xzbsuHI59/0PKQJeFkRrY7HBB7j1cHbiBCAkCBAtixs+oIRcI6Cu5eN7OUZqiJ3+QRQvvxxF512Y9p772YBsG/0v/grxxx7G4B9+B/K4niyMlEJcCNwjpbqVWw9nF04Aclzy+N4NAK3m6Xs5RghYDU0ovuxyFF+6HHpVddARBcbtaPcnEj72COztW4MOh6ULqddJaLdqlvvzxle39gYdTr7jBCAHESBbTm44V5FcI6Cu4Ol7uUWvmXawmM+a1xB0OFln+N13EH/0YfQ9+yS8eDzocFg6KBqEwH1Kk7cueGvzH7nJUDA4AcghLYvmzVJCjhzfmxN0PGz8ZGERis6/EMWXXY7YaR8ABP/qHQ85jr9F8OjDGPzDb3mLIKwUvQuJtcqUdy98bXNn0OHkE74KZbnXly41itze5YrkGhK4WALhmwITUkLXUfCRM1F82eUoXHYuhGUFHVLOcjs60Pvko+h97GEktvEWQTgpGxAPgrC2aX3LiwJQQUcUdpwAZKmNi+c3CtBqErhJAvm7OZxrhEB00WIUX3Y5ii6+LBSd+rLN8MYN/hbBM0/wFkFIKWAbSNwGHXcufHPz/qDjCStOALLI60uXxoqc3qv9Sn6cGXQ8bPzM2bUouuxyFF92OczZtUGHkxf8LYIX/FMEv/8NbxGEkFLwIPAEINa2ltU8c85LL7lBxxQmnABkgY2L5p8KSWugcL2UKA46HjY+WmkZii68BMXLP4bo4iVBh5PX3M5O9D75GHofewiJrVuCDoelgVLYKwXdAeD2+etbdgQdTxhwAhCQHUvqShPCuo5IrBHAKUHHw8ZHWBEULjvHb9JzxlkQWjib9OSy4Y3vovexh9D79JPw4j1Bh8NSTAEkiX4JgbVyQD3auHVrIuiYchUnABlEgGhZ1HCmknINAddIIDwD3cNMCERPPQ0lH/04ii64CLKAeyzlAnJd9L/0a/Q+9hAGfvcbkMurx2GjFDqExE814d3W+PbWjUHHk2s4AciA9SedVGNq9o3JZj2NQcfDJk5oGrSyMmjlldArKqBVJP8c6/+XlwOSD2tkE6/L3yKIP/4IEi3coj6USP2ehFybIOsXJ69fPxB0OLmAE4A0oWugtWxpuEh5co2A+iik1IOOiWWIlNBKSkclBpXvJwgVldDLKw7+XSuv4G2EDEts3oj4Yw+j96kn4PV0Bx0OSznVByX+j3Sxdv5bzW9wk6Gj4wQgxTYvbqwHcIsicbOUmBl0PCzLSQmtqPjQBGHUysLopEGrqIQwjKAjDgVyHDj79iL+4H3oeeA+qMHBoENiaaAI66SgW21l/d/id97hbO8wnACkQMu8eZaKyY8TxBohcH7Q8bCQEgKysGjMlYQjtyMq87bxkNfVCbe9DW5bK5y2toN/d9tG/mz1iwN5CmHeUMAwFB6AJtYueHvzy7wq4OMEYAreXbLgRElqjYD6BISsCDoexg4SAjJWcESCUHzpckRPPjXo6CZFDQ0dvIG/f1NP/r01+ffODpDjBB0qy2ZKbYEUa23PvGvxhg2tQYcTJE4AJmjDwoWFuu6uhMAaQHwo6HgYmwhj5izUP/Rkdq0OKA9ue/vBm7kz8qR+2JO7GugPOlIWJkq5BPm41NTaxoYtz4r7kXedpDgBGAcCRMuShtMV5KcE1LWA5HNgLGdV/OlfoPLPP5eRz+XF40c+tR/+Z1c3oPLu2suyiAL2COAOALcvWNe8M+h4MoUTgGPYsHBhuaZ7Nwih1gByUdDxMJYKwrJQ/+ATMGbNTsvrD77yexz45tfgtreBEtyjheWOg02GgNvkoHok7E2GOAE4DAGyeXHj2RBYoyCulEAWrZUylhoFZ56NWf/147S89p7P/ikGfvtSWl6bsYwh1UmQdxPEbQvXb94QdDjpwAlA0qZTmmbAxU0ksVoCc4OOh7F0m/mD/0bh2eel9DWdvXuw/aMXAoonuWYSAejzCN2uwtaBATTEIphtGRCCL/GpQMArQtFassV9C5qb+4KOJ1Xy+qfj18uW6dO6D1wihFqjlLxMSnBHFpY3jBkzUf/wUyktCGz/j++i667bUvZ67NhsRej2CN0u4BFBCOC1bn/+QVSTmBe10FgQQaHGnSlTQw0AuE9Jbe2Ctzb/MdePE+ZlApBs1rMaRDdDyhlBx8NYUCo+/RlUfubzKXktsm1su3AZd9dLMwLQ6xG6XcKAd+j9Z3QCMNoMy0BDLILaiAHJqwIpoQibBHCbAefueeu3twUdz2TkzU8CN+th7EjCslD/wOMwZtdO+bXijz+CA1/9UgqiYmNJKKDbU+hxCd5RnjuPlgCMiEiBE6IRNBZYKNZ5wTMllHIhxWNC0G25dpww9AnAxsXzTxKg1UKoTwKyPOh4GMs2BWechVk/+smUX2fXDSswvGF9CiJiIxQBvYrQ7RAG1fFXmwWA13rGNwJ5mqmjIRZBXczivc8UUQp7paA7BdHtTe9s2R50PMcTygSAm/UwNjEz/+NHKDxn8gtjwxs3YNd1V6cwovw2TIRuB4h76qhP+2OZSAIwwpQSJ0RNNBZYKNV5ZlnKKPVrkvK2gujAQ7V/3DMUdDhjCU0CcLBZD8k1QqhV3KwnA4SAjEYhC4sgYzEIXQd0A0LXD/4Pmg4oD+S6/jx21zn4dxoagtffDzU4wFXjAfMLAp+EsCKT+vcHvvZlxB99KMVR5RcFIO76lfxDk/x1mEwCMFqlYaCpwMKcqAmdawVSQinEIfF/Qonb5r+z+c1sKhzM+e8wN+tJMSmhV1bBmDETelUV9Kpq6JX+n1pVNfSyMv+GX1gEragQkClYPCSCGuj3k4G+PnjxHrjt7fA6koNc2tv9FrGtB+Du2wvycmaLLadUrPkzVH72CxP+d15vL7ZfeBbU8HAaogq/YUXocoG4qzDVNHiqCcAIQwrMjVhoLLBQbvCqQKooYL1QuF2YdO/8N1o6go4nJxMAAuTmJU3LBNEaJcRV3Kxn4mQ0CquhEea8Jph1dTBn18KYXQeztnbST4GZQJ4HZ+8eOLt3wX5vN5zdO5HYthWJ5s3+hDc2acI0MefBJ2BOsCCw66d3oP3f/zVNUYWTR0DcI/RM4Wl/LKlKAEYrN3Q0xSzURy0YMidvGdlHKSdZOHj7vpIZz53z0ktuEGHk1Hdz0ylNM8gTN0LQagmcEHQ8uUIWFCC6aAkiJy2C1TgfVtMCmLV1fslwiLitBzDcvBmJls1IbHoXQ2+/CbezM+iwckrBR87ErP++dUL/ZsdHL4T93u40RRQuQx6hyyPEPYDSNI749RQnACM0IVAfNdFUYKHCMHLr5pHNlNpPQt4tNXVn01tbNmXyU2f995Cb9UycVlaO2GmnI3ryUkRPWYrI/PmpWarPQfaunRh66w0MvfUGBt98HQ7fqI5rxvf/C0XnXTCujx34/W+x5zNr0hxRbvPg7+13uYTEOCr5pypdCcBopbqOxgILJ0RNmJKbDKUKAa8Iortssn6++J130t5QI2sTAG7WMwFSIrLgRBScuQyFZ5yFyImLQvd0nyr2rp0Y+O1LGPjNSxh883WQbQcdUtYxpk1H/aNPj2sraO9f/jn6X/p1BqLKPYPJp/1elzJa9ZWJBGCEBqAuaqGhIIIaU8/eG0rOUTZIPiqkujOdWwRZ9f3iZj0TICWipyxF8SXLUXTu+dDKK4KOKOeooSEM/O436Hv6cfT/9mWeXDdKxepPo/Jzf33Mj3H278P2yy7gUb6juOQf3et2CImAar0zmQCMVqxraIpZmBuLIMK1Aqmj1H5IcQcIa+evb9mRypfOiu/Su0sWnChJrRFQn4CQfCc7BmteA4qXfwzFF18Gfdr0oMMJDTXQj75fPofeJx/D4Ouv5v2xRGGamHP/YzDr5hz1Y9p/+O/oun3qDYRyHQEY8IAeT2X8aX8sQSUAI6QQqI34rYenW1wrkCoKIKHwlAD9d9M7Lc8KTPnQSHDfm7cXLy6wkFgpQGsgxJ8EFUcuELqOwnPOR9mqGxA99bSgwwk9e9dO9Pz8HsQfewRqoD/ocAJT8Ccfwaz/HXuwDzkOtl10Nryu/C2ydMm/6Xc7BDvou/4oQScAoxVpEg0FEcyLWojyQKKUUYRNEvR9Oajuady6ddJLlxlNAAgQm09pWio8+hQErQJkUSY/f66RsRhKr70BZddeD726Juhw8o4aHET80YfQdedauK0Hgg4nEDO++58ouuCiI97e+9Tj2P/lvwsgomARAf2K0OMS+hQhTYX8U5JNCcAIKYBZlomGWAQzLAO8Q5AaCtgDiH/VB9xbJ5MIZOTbsH7RojJdOteDaI0UWJKJz5nLhBVB6TXXomL1p6GV8fiCoJFto+f+n6Hztp/k3ROvPm066h95GjJyaEHg7k9ei6H1bwcUVeY5BHS7/rl9Jwtv+qNlYwIwWoEmMS8WQUPMQgGvCqSGUrtIk1+e/3bzzybSaTBtCQABomVRwxlKyk8RcI0Esre7TLYQAsWXLEfVF/6Wn/izkBoaQteda9F1x615dXqg/JZPo+rz7xcEJpo3Yee1VyIrH39TrM8ldHsK/V4W9W89jmxPAEYIADOTtQKzLB5TnAoK+K0m1afH208g5V/xlg/MK1YJ+QlS4jNCYmGqXz+sjBkzUfOVb6Dgw2cEHQo7DnvHNhz4+lcwtO6toEPJCGEYfkHgnHoAwIF/+iriD90fcFTpYxPQ7RB6PAU3V+76o+RKAjBaVCZXBQosFPGqwBQpGxBfbFrX8p/HWw1IWQKwcfH8k6RQfwHQJwBZkKrXzQclV1yN6i9+5YhlVpbFiNB9711o/8H3/CFHIVfwoQ9j1o9vh+rvw7YLzoIaysrhZpNG8J/2uzzCwETG72WhXEwARpth+asCtRFeFZgKpfCLwoKBm441iXDKX91NJzd9GB6+LCQum+pr5RthGKj+u39A6Yrrgg6FTdLg669i3999AV53V9ChpN2M7/4Ablsb2r77naBDSRmbKLm3Tzn5tD+WXE8ARkSkwNxYBE0xC8V6fnYynSoFvFAYHVh+tCRg0glA88kN5yuSXxXAWZMPL3/JgkLM+uH/Irr09KBDYVPkHNiPPX92C+ydKe3RkXX0mmmQlgV7966gQ5kShfef9gdz/Gl/LGFJAEabZupoKIigNmJB50WBiSF17/z1W24Y610T/lJuXDz/JAj6rgQunnpk+UlGIpj137fyzT9E3NYD2H3z9XD27Q06FHYUCfX+036Yexe+0dOTMwWLE2VKgblRC40FEZTxqsC4kcLHFrzT/Njhbx93ArB+0aIyUyT+RQmxRgJcpTFZUsOsH/4vCs7ghZOwcd7bjV03rsq7o4LZjMifvNcd0qf9sYQ5ARit0jDQVGBhTtSEzrUCx0bq9/PXb/nI4W8e11dt0+KmiwSp23koz9SV33gLqv7q74MOg6VJ36+ex76//XxeHJHLZsMK6PYU4i4hT+77B+VLAjDCEAL1MQtNMQvlhh50OFlJASSGUbKgublv9NuP+dX69bJl+vSe/d8H8HkIfuifKnNOPSr/4gtBh8HSqOi8C1B0wcXoe+7poEPJOwr+2N1ulzCUgbG7LDs4RGgZGEbLwDDKDX9M8dyIBYPbDR4kARGXbi2Ad0e//agJwNuLFxdEevb/HBDL0x5dnqj4089CmGbQYbA0q/rLv0HfL5/N+4FCmTKkCN0OIe7R1KejsJzW5bj4Y4+L18Qg6qMmGmMWKk0eSEQA9iSMI74MYz7Wb1i40DRF4hm++aeOVlKKovMvDDoMlgHGzFmInf6hoMMINY+ALpewbdjD9mGFbr75H8RrH4BHhK2DCfyyqw9bBnjMd79HGHa9wcPfPuYKgG64/wkIbkmXQoXnXQBhGEGHwTKk+NLlGHzl90GHETqDitDtAr2eAq/yj02Ak4Ca5LHBOj42CABoSyiMVfJ3RAKwaUnTOQD+LAMx5RWzrj7oEFgGjbTNZVPnEdDj+q15h/kxnx3FSOOgxpiFEj4ieFCvS+h2FQSO/JockQAQ8PecMKWeMWNm0CGwDDJmzg46hFDwCDjg+NX8+f5Uy8Y23TTQWBDB7Kg5xi0uvzmKsGP46F0vDkkAfr1smY6uAxfwKf/UI9cJOgSWQWTzvmMqaAKYaUrUGP4qQLdHsHnt/5jyYQuAhwcdn0fAliEXzjFWzQ5JAGZ07aslKTmJSgNnz3tBh8AyyNm7J+gQQkUXQKUhUGkIDHp+G99eXhXIKzw+ePxc5d/8B4/T8vKQBKB5UJU2FnI2lQ6Jls1Bh8AyiL/f6RPTBGKagGcmVwVcQoJXBUKrQJNoiFmYF7VQwHv7x5VQhC2DHobH8TtxSALQ57qDQ56OKH+NU67/5RfhxePQSkqCDoVlQPzRh4IOIfQ0ABW6QIUuMJRcFYh7fvtfltukAGZZJhpiEcywDHBPn/GJuwrbhxS8cf4OHFEE2O54qNU4A0g1SiTQ+/jDKLvhpqBDYWk2/M46JFqagw4jr0Q1gZmawDQC4h6hx1UY4hMDOadIk2gosDAvGkGU9/bHjQDsGVZos72xbtUjAAAgAElEQVQJbYsdmQDYCjWmhMUpV8p13vq/KLp4OfTKyqBDYemiFFr/5VtBR5G3NAGU6wLluoZhRehyCXE3z5oECZFTsyikEKiN+JX807hr34QNeoQdQ96k2l8fkWIRgG2DXn79wmSIF4+j9VtfCzoMlkZdd67F8LvvBB0Gg38ufIYp0RTTMMOUiOXJA2Wu1MYV6xpOL47hmpoyLCsrwnS++U8IAdib8LBpwJ307IsxOwEOKsLOIQ9zuRgg5fpf/BW6bv8Jym/5dNChsBQb+MPv0PHjHwUdBjuMBFCmC5TpGhJE6HKAuKfybkpgNtAAzIlaaCiIoNrU+YY/Sb2uwq5hNeXi16MOA+pKHh7kJCD12v/rPyALC1G64rqgQ2EpMvT2m9j3158F2XbQobBjsITAdBOoIQ29yVqBAV7uTLsyXUNjQQRzoyZMmSdLMWmQUIQ9CQ/dTmqy12OOA+5y/GrCE6Ian7lMJSK0/su3QI6DsutvDDoaNkWDr/wee//mL6GGhoIOhY2TFECpLlCqa0gQ0O34rYZ5VSB1dCFQHzXRUBBBpcFP+1PhEbDf9tCWUCndnj9mAgD487U3Dng4IaYhyoWBqaMU2r77zxjevAnTvvpPPCY4R3XddTs6fvh9kHecjhssa1kCmGYK1EBDr0vocQn9OdxXgALuBVhh6GiMWaiPWjD4njElBL8wf1/Cg5uGb+lxEwAAGFaETf0uZkU0VJu8fJNKvY8/AnvbFkz/9r/BrD8h6HDYOHnxHrR++xvoe+7poENhKSIAlOgCJbqAfXBVgODmUEV9UAwpMDfi7+1XGLxtPFUEoNMh7Et4aW19Pa4EAAAUgN3DHnpchbqoDosTu5QZ3vgudq68AuW3fBoVa/4MQh/3t4UFoPfJx9D2vX+B190VdCgsTUwB1JgC1RDo8wjdTm6vCqRLlamjKRZBXdSEztvEU0YAuh2FfQk1rk5+UzXhO02vS3i338F0S2K6yZleqpBto/PHP0Lfc8+g+q/+FgVnnh10SOwwiZZmtP/Hv2HgD78LOhSWIQJAsSZQrAk4yl8R6HYJKarBykmmlDghaqKxwEIpP6ykBJFfc7ffzsyNf8SkvnuKgL3DCp02YVZEolTnbYFUsbdvxZ7P/RmiS05B5We/gNjpHww6pLxn79qJjv/5IfqefwZQXDKerwwpUCUFKnWgX/mTCfs9yr6eO2mKZ5ploDFqoTZm8djdFCEAHbbCAXvqR/omY0rp27AibB30UKQrzI5oiHHBR8oMrXsL733qRsRO+wDKbrgRhcvOzZ0OHyExvGE9uv/vbvQ9+xQX+bGDhACKNIEiTcAloMdT6HYIdpYkAqm8SkSkwLxYBI0xC0U8iCdlPADtCYVWR8EJcGspJes3fa5fJFimS8yISEQ4EUiZwddfxeDrr8KYOQulK65DyRVXQysuDjqs0CLXRd9zT6P7Z/dg+J11QYfDspwugEpdokIHBjw/Gcj1McUCwHTLX+KfzWN3U8ohoC2h0O6kp6p/og75zt5bVzefpLZpSi8o4CcCFicC6SCsCArPPAtFl3wUhWedDWEYQYcUCkNvvIbep59A3/PPwov3BB0Oy2Eu+Z0GuxzADmB/4K14Lzya+FZVTJOYF7PQEIugkAfxpFRCEfbbCl12as/xT4TwtBOu371l++i3pbyCY6SYodtVKNMlppsSUY0TgVShxDD6fvkc+n75HGRRMYrOuwCF516Agg9+CMKKBB1e7lAKQ+veQv+LL6Dv2afgHNgfdEQsJHQBVIysCiigx1WIZ+mqgAAwM2KiKWZhpmVA8NN+Sg14hP0Jhbinsq9WBGlIAEYcTAQchRJDYLopUcBZZUqpvl7EH3kQ8UcehLAsxJaejoIzlqHwzGUwZtcGHV7W8bq7MPC736D/ty9j8A+/hRePBx0SC7kCCRSYEtNMv6lal0tpL/YS40g1CjQNDTEL82IWX5fToNshtNoe+rOotaSHxBHBpHwL4FiKNIEaU0OpwVlmuuk10xA9ZSlip5yK6ClLYTU05V0RobPnPQy99QYG33oTQ2+9Dnvnjpwak8rCaWhkTLEHUBp+Ht+Ox8dsXiSEQK31/thd3qFNLQWg01ZozfBRvvHSlFe/ateunaPfltFDnH0eoW/IRSQhUGNKVBiSfwjTxG09gL5nnkTfM08CAGRhESILFsJqWoBI03xYTQtgnjAPQgtHZa/93m4kNm9ConkThps3I7HpXbgd7UGHxdgRolJgpikwjYBez08G0nnDKNI1NCaf9iM8iCflHALabQ9ttsqKwr6JCKSLw7Ai7Br2sNf2UKVrqDYF94xOM9Xfh8HXXsHga68cfJswTZhz5sKsrYUxuw5mbR2M2jqYs2uhV9cEGO3YvHgPnN27YO/eBfu93XB274KzZzcS27ZBDfQHHR5jE6KJkTHFAsMjqwIupaRITAqBuoiJxpiFGsvgQTxpMOQBrbaHLie4wr6pCrSNk6v8CUcHbKDckKixJPcSyCCybSRaNiPRsvmI9wnDgFZRCb2qGnpllf9nVRW0snJohYWQhUWQRUXQior8v8digG5AGMaxVxWUB3JckOtCDQ1B9fdB9ffB6/P/VH198HrjcNvb4La1we1oh9vRDq+9DWp4OI1fDcaCE5ECM0xxsFag2yUMTWJVICKBpcVR1EctWPy0nxa9rr/MH8+1x/0xZEUfR3/wgUKno1CoCdRYfndBTgWCQ44D98B+uJOpjhcCQtP8mQa6AXj+DZ88jzvpsakRItR1HBLvrwokiNDlEHo8QB3jv1kIgRINKNdE8sRVNGPx5ouRe1RrQk0qMctWWZEAjNbvEfoHPZhSodqQqDIFtDwrXst5RP4N33UB8FM7mzituBjmnHp/i2pOvf+/+rno+O//RN8vnws6vIywhMB0U6AmWSvQ4yoMjMqfo9JPFIo1AT5pnR4uAW22h3ZbhXL+Q9YlACNsRdiT8LDPFqgwBKpNiShvDzAWGkLTYMycBbM+eZOvqz/4d62s/IiP73v+WfT96vkAIg2WFECpLlCqa0iQ33m1UBOI8Ap/2gwpQmtC5fT+/nhkbQIwQhGh3Sa02wpFukCNwccIGcslWknJoU/yySd7Y3btuEdfe12daP3210O9/D8elgAsvv6lTdz1z+/3hmB/fzyyPgEYrc8l9LkurIRAtSlQYWjQ+XeBscAJXX//ab7u/SV7c049tNKyKb/+gX/6Krye7hREytihFAGdrr+/n43n99MppxKAEQlFeG+YsDdBKDf8ngK8PcBY+mklpe8v2Y/aozdm16atp0T8sYfR/+ILaXltlr/sg/v7BC9PV5ZyMgEYoYjQYRM6RrYHTIkSPj3A2JQIXYcxu/b9J/nRT/MlpRmNxT2wH23/9p2Mfk4Wbv0eodX229Tnu5xOAEbztweSpwdMgUreHmDsmLTSsrGf5mfNzpoOkfu/9mWo/r6gw2A5jgB0O/75/YEs6s8ftNAkACNsRdgzTNg3rFBmStSY3FyI5S9hGDBm1R7xJG/W1UMrKQk6vGPq/vm9GHzlD0GHwXKYf4xPod1RcPJsf388QpcAjBgZzNBpKxRoEjWmQJnB2wMshISAVlb+/k1+1HE6c9YsQGbH0/xE2Lt3oeMH3w06DJajBj1Cmx3+Y3xTFdoEYLQBT2H7EKAPK1SZAlWGBpPP0LIcIwzDn9kw+mk+uU+vFRcHHV7qKIUDX/kit35mE9bjEFodD315coxvqvIiARjhEmF/gnAgoVCq+6sChTpnAiyLCAG9vBzGHP/mbtX7N3hjzlyYM2fm5NP8RHXduRZD698OOgyWIzwC2h2Fdlshwcv8E5JXCcAIAtDtKnS7QFQqVJsSFYaA5JbDLEOEacKcXXtEAZ45px6yKERP8xOUaGlGx49/FHQYLAcMK3+Zv8PmZf7JyssEYLSh5GjiPQmgwpCoNiUiXDTIUkEI6BUVRzTGMevqYcycBfC0tkOQ62L/V74Isu2gQ2FZbGQaX69L4Of9qcn7BGCEN1ItaisU6RLVhkSJIbhokB2XsKxRT/OHtryVhUVBh5czOn/8ozFHUzOmiNDh+E/8+datL504ATgMwc8we10FMyFQZUpUGZJ7CuQ7IaBXVI5ZgGfMmMlP81M0/M46dN1xa9BhsCxjK0KrTeh0PHBdX+pxAnAMtiLsHfawf9hDmSFRZUoU8tzNUBOWBbO2buyn+YLCoMMLJUoksP+rXwJ5XtChsCzR5xLaHA89LuX7/Ke04gRgHBSATkeh01GISYFqS6LckOBnvhwlBPTKqiOe5A8+zXMxaEa1//D7sHfuCDoMFjAFoMtRaLMVBrlbX0ZwAjBBg4qwc8jDnoSHCl1DtSlhcSaQtcz6ubDmNR7a8rauHrKgIOjQGIDB115B98/uCToMFiCbgPaEh3ZH8TJ/hnECMEmuAlptD222h2JdoMrUUMqFAllH9fXCnFOP0qtWQK+ZFnQ4bBQ1MIADX/syoPgQVz7q8whtCYVul7//QeEEYIoIQNwlxF0XlgSqDA2VhgT3F8oObkcHOm/9X3Td/hMULDsXZStXIfbBDwcdFgPQ9r1/hrNvb9BhsAwiAF22QqvDy/zZgBOAFEooYE/Cwz7bLxqsNiQKuGgwK5Dnof+F59H/wvP+isA116LkY1fyMb2ADPzmRcQfeTDoMFiGOIrQ5hA6bA8O3/cD4Wja4OFvO+TudG9d3XyS2qbMhRR+BZpAtSFRbvIgomwjo1EUXbIcZSuvg9W0IOhw8oYXj2PnVcvhdrQHHQpLswHX783f7XDTnkAp1Xb9rp3TBA79NvAKQJoNeIQdnof37JGiQQGLOw1mBTU0hPhD9yP+8AOILlqM0hXXoeiiSyEMI+jQQq31O9/gm3+IEYBux+/WN8DL/FmBBB48/OYP8ApAxgmAiwazmFZWjpKPXYnSFav8I4EspfqefQr7vvjXQYfB0sAlSnZTJTh8eD97KOVohr5g1dat2w5/FycAAbKkQJUhuWgwG0kNBR85E2UrV6HgI2dxb4AUcDs6sPOq5fDiPUGHwlJowCO02grdjuJl/mxE+PoNO7d/Y6x38RZAgBKK/KLBBHcazDrKw8BvXsTAb16EMWs2Sq9eiZIrroZWUhp0ZDnrwDe+wjf/EOlyFVoThAGPj/FlLVK/mllX923s3D7mu3kFIMsc7DSoS3CpQHYRloWiCy5G2crrEFm0JOhwckr84Qdw4BtfCToMNkXuyNA0R8HhoTzZbp2jvLNv3rXrqFk3JwBZShMClYZIdhrkTCDbRBaeiNJrVqH40uUQViTocLKas38fdl59OdRAf9ChsEka9Ahttocuh8DP+7mA3hSGcdH1LS0dx/qoQ+4sd9TVTTOktj+9gbGJEACPJ85iWnExij96BUpXXgezti7ocLLSe2s+icHXXw06DDZBREC36/fm7+dq/txB6slhy1q1prm573gfesj9hABxT/3c7QKYk7bg2KSZUqDaFKg0NB5PnG2kROz0D6Hs2utQuOxcHg+c1H3vT9H23e8EHQabAFcBHa6HtoSCzff93EL4jrlz+z+uAMY1WvOI28jd9fX/n4D4VuojY6kiAL/TIBcNZiV92nSUXrUCJVeugF5REXQ4gbF37sDOlVeAEsNBh8LGwV/mV+hyFXh7P8co1QbIm27Ytf3pifyzI+4eP62pKZCR6EZIWZu66Fi6xDT/KGGFISD5qFpWEYaBwnMvQNmKVYguPT3ocDJLKez65LUY3rA+6EjYMRABPcll/j5e5s9R9IgS4k8/uX1720T/5Zh3jHvnzj2DPPUCpOSWaDlCE0CF4XcajHDRYNaxGhr9osHlH4OMxYIOJ+061/4YHT/6QdBhsKPgZf4QUKqNNPmFG7Zv//lYXf7G46h3invr66/3IO6Wx/gYlp2KdP/0QKkmuX9NlpEFhSi+7HKUrrwO1gnzgg4nLRLNm7DrhhUgxwk6FHaYIUVoTfAyfy5TAEnQTwzH+fLKPXu6pvJax7w93F1ffwMpukNKyQ2DcpApgUpDQ5UhYPCqQHYRAtFTT0PZilUoPP8iCE0LOqKUINfFrlVXIrGlJehQWJI/slyhNcHL/CHwR0/gczdu3/56Kl7suHeFe+vrzyeI+wFwC7QcJQCU6n7RYBEfH8g6emUVSq68BqVXr4ReXRN0OFPS/sN/R9ftPwk6DAbAI0K7TWhzFGx+3M9pCtglBP5h6/bt930DqWvFMK67wU9ra+sh5f1SyKWp+sQsGFENftGgqSEcz5zhITQNBcvORdnKVYh98MNBhzNhQ+vfxu6brgfUuE4gsTQZUn5v/i6HoHgoT05TQLck9R2H6Ec379qV8uM0434c/MXChWZicPjrQuCLAPiQc46TACpMf1UgytsDWcecU4/Sa1ah5GNXQBYWBR3OcanhYexa8THYu3cFHUre6nEIrY6HPpdv+rlOKdUvhfyhQ953j9XKd6omfOW/u77+dCixVkgsTkdALPMKNb9osMyQXPGZZWQ0iqJLlqNs5XWwmhYEHc5Rtf7zN9Fz371Bh5F3PAI6HA9tNiHBy/xhMECgH0nD+N7x2vimwqSu9///0qVGrKvrc6ToG1LKwlQHxYKhC7+nQJUpYPKqQHYRAtFFi1G64joUXXQphJE9J3QHX/kD3vvz1YDiLvGZMpys5u90FPfmDwOlEqYm1zq6/vVM3PhHTOkqf3dt7XQh9W8pgZv5uGB4CAGUaBLVpkCxzrs92UYrK0fJx69C6TXXwpgxM9BY1EA/dlz1UbgHeIRIJvS4fre+Xpdv+2GgC6DG1FBlSr+9O9FLJMRdGMYDC8bRy3+qUnLT/umcOUsgxD9LiEtS8Xose1gH5w9IaNxUILtIDQUfORNlK1eh4CNnIYimDwe++iXEH38k4583nygAHbZCq614mT8kTCkwzZSoPFoHV0WDJMWDgujOpvUtL4oUVv6PltIrxr1z5iwjkt+ExJmpfF0WPCmS8wcMiQKeP5B1jFmzUXr1SpRccTW0ksyc2O1/8QXs/au/8PvJspRLENCW8NDhKPDx/XCISIFploaKiUx2VWoXSblWQt3RtG7L3lTGk/IrOQHi7vr684WifxRSnpHq12fBK9AEqg2JMlPycZAsIywLRRdegrIVqxBZtCRtn8fr6cbOq5bD7exM2+fIV72uf4yv11WT6+/Ksk6hLjHdlCiZQh8WpeBJSY8QxI/mr2t+abLtf0dL26McAeKeuhOWCeF9BUKel67Pw4KjS6BC11BtSVi8KJB1IgtP9OcPXLocwoqk9LX3/d1fou/5Z1P6mvlMEdDpKLQ5Hoa4jUJolOoS06zUT20l4C0IfO9AybRfnPPSS+5kXycjl+17TzhhqVL0RQKu5mLB8BEAipPzB0q4aDDraMXFKP7oFShdeR3M2ropv17v009g/z/8bQoiY7byO/W12wSPt1JCQQq/ZqomAw9GCtguCN8+UDbtp5NJBDJyM96wcGGhrrsrhwmfbbPVyR3coSq0TClQZUpUGcmqVpY9pETBBz6E0pXXoXDZuYCceLLmtrdh51XL4fX2piHA/NHv+cf4urmaPzR0IVBjClQZGjL/HKSaAfGlpnUtj05kayCtWwDNJzeeRkp8Sgi1Cni/X4CrgPZk8wqHE4FQEvCLBmsMiQLOBLKOPm06Sq9agZIrV0CvqBj3v9vzF5/CwO9+k8bIwosAdDqENtvDIFf1hUZUCtRYEhXZ0EhN0XMC9OdN72zZPp4PT3m8ry9dGit0+lZB4DOAOPVYH8u/EPkhpgFVhl/5OuaRFxYYYRgoPO9ClK1Yheippx3zY3seuA+t3/pahiILD5f8s/ttNsHlB57QKNYlpmVjrxRFg0LSFxrXbVl7vNWAlF2N3z15QYNU6jMg3CTkxCcH9rl+H+seh39BwkoX/vyBKkMiwp0Gs47V0OgXDS7/GGQsdsj7nL17sHPFx6AGBgKKLvcMekCr46HL5mr+sBAAKpL7+1k/Q4XoTtfV//SkjRvto33IlP8LNi6af6qU3j8oyKtSUeCXIKDN9tCRUOBi2PAq1v29stKJnIdlGSELClF82eUou/Y6mHPnAUTYvfoTGHozJSPIQ40AxF2F1oRCH69qhoYugOrk8DQ9h1YxifCUNuhd2bh1a2Ks90/6v2Tz4sYzQPgqpLhw8uEdnQegk7tfhZ4pgCpTQ5UpcuoXKy8Igeipp8GsrUP84QeCjiarjQzlabUJNl+vQiOq+a16y43c7XlCwNoF65o/Ndb7JnzF3bh4fqMA/asQ+PjUQzs+gt8Yo832EOcxl6HlFw0KVJtays/MMpYuCeU37em0ecUyTEp0gRpTZt/+/mQRXTJ/fcszh7953Ffalg/MK1YJ+U0o+gyk1FMb3fgMK7+YpsPmCVhhFpV+TwEuGmTZqjd5jI+79YWHFP7+frUhEQ3ZQwgBLy9Y17zs8LeP679y05Kms4VSd0LKqXcRSQEv2TWLtwfCTRv5hTS5aJAFzz+1pNBmKz61FCJGcuBZlR7E+f3MUAApRys+aePG/tFvP+aTPAFy8+KmfxbA30+maUi6aMmCjCpT8vZAiHmE5PEphWJNoNqSKNFkEEPvWB5zCGi3PT7GFzIFmr/MX5YN5/fTTAJiSDizAWwa/fajJgC7PzQr2jwUu1sAV6U9ukkS8PdqSnT94PYA78WFU69H6B30YAqPiwZZRgwpf5m/y+Etx7AQAijTBWoMLe8alB0YPHLrfswE4PWlS43+of4nJHBu+sNKjYgUqI1omBnR0GkrtDsKQ7xMFzo2AXsTHvYlgDJdojoNgzZYfhs5xtfL14/Q0IRAlekXGZt5eLkYcAk9Hh3RxGPMBKDQ7fseIHLm5j+ahvfPa/Z6ye0Bh7hQJ2QIQJer0OUqxDSBKoOLBtnkKQI6kzf+Ya4rCo2oBtQYGsrz/NrQaiuMVfJ3RALQvKjhTIL4fCaCSrdiTaA4qsO2/IlbHY4Cz94In0GPsMvzsDfhdxqsNiQsLhpk4+AoQptNaHc9vjaESGlyOmlojvFNQZ9HyaFT2hHvOyIBICn+PhNBZZIpBWZZGmaYGrodhVaHq3jDyCWgNaHQllAo0iVqTMHjidmYBj3//H6Xw8f4wsIfwyv41NAoLgE7hjwQxj7yd0gCQNdAa95MFyOkXzyZ7EVfYUoMeAqtNqGbLwCh4zePUuh1AVMqVBsSVaaAlsdLgMwXdwmtCY/390PESvYNqTQkuBzofYoIWwbVMTtTHpIANDc31kKKQJr8ZFqBJjE3CrgRifZk0aDNS4ChYyvCnoSHfXZyPLEpEQtpgsvGRgA6HIU228MQHxEKjaJkNX+JLvho8GE8ArYOehg4TqJ7yM3+XVvVnGgduU8QZroQmG5pmG5p6Hb9M+d93FMgdBT5syU6bYVCTaDKlCjPg/O/+cwjQqvtHw/m8/vhIAGU58o0voDYirB1yBvXNvchCcCArfqH83hUa5kuUaZLbjkccv0eoX/Iw55hD5WGhipL5uXRoLDy+/MTOhwFxTf+UDAlksv8GvLs+P6E9LmEbUPeuBPeI5b7222F2ZH8WgU43MGeApaGTsfvAMZHg8LHIWC/7WG/7fk9BUyJIr665KwBj3DAVuhxFfi+Hw6Fmn92v4zHhh8TEbDfVthvexP62R8zAaix8rNZwuH8lsMaqk2/E11bQiHu8cUljLpdhW5X8SCiHBR3CQdsj7fuQkLAX+avNiUKuKrvuIYVYeeQh/5JFLYekQAoANsGPcwv0DjjGqVYEyiOabBJQ7vtoZ37gofSkCLsGvawJzFypEiDxScJsw6R3wjqQEJhiFfnQkEXIjnjRcDg5Pu4iPwGP/tsD5P9FRiz4n/AU9g1BMyJ5vdWwFhMAcy0NMyw/KfGtoSaVObFstvoArISXaDK9KuNWbAUgA5b4YB97ONNLHcUaP6Nn4tyx6/fI+wa8qac/B71yF+H45e/1UV5JWAsAkC5LlGuSwx6fqfBLoe46ChkCECPS+hxXURGzhubErwokFkeAe2OhwMJXnkLi3LDn8ZXoPFv03g5irAnodDppKY8/Zhn/jscBQ+E+qjOF7xjiGkCczQNsyx/Xni7zf3Ew2hYEXYPe9ib8FCR7CnALYfTyyO/sK/dVuAt/tynC/jTPA0Jk28q46YIOGArtCa8lE67PW7Tn26HMOy5OCGm5e3xwPHSBVBj+jeGXpfQ7njo4UFEoeMR0Ja8KRXr/lMM9xxPLZeAA7aH9gSP9w6DWHIoTxmvnk0IwX+o3Jfw0tKoblxd/4YUYWO/i7qIhgpO28alWBco1nXYEf9kRYftweFMIFQIfgV63PUQ1ZR/ekDn0wNT4SrgQPLoLW+n5TYhgFLdfyDikd0T1+Mq7E2kd6z9uNv+KgA7hj10u4TaKB8THC+/aFBihiW5aDDEhpJFOXvyfO74ZPlL/YS2FC9xsszTRn4HDAmTV40nrMch7LPH18lvqibc97/HVejrU5gR0VBtctXmeHHRYH7wiHAgQWhNKJQljxHy08/RecmjTK22B86Lc1tUCtRY/jWO7/sT1+0q7E94GMxgBjypwT8egPeGPXQ6HmZFdBTzBW5CRooGZyeLBtu4aDB0CECXQ+hyXBRqAjXJbmbM5x+zVMk+/UFHwyZLAChJLvNzF82JIwDdjt/BL4hBVVOa/DfoAS0DLkp0gVmWDm4bMDF+p0G/4xV3Ggwvf/aACyshMC15jDBfL5WO8pf6O2xe6s9lugAqTcnL/JM00s+i1faQCHDgTEpG//qFUA6qTInpJv9ATMboToMdyU6DDmcCoZJIdhncl1CotvyLZ74sng15QKvtodNRfComh0Wkn8SWc6vsScm2fhYpSQBGtCcn6FWYEjM4EZgUUwAzLA3TLX9pqN1W6OPN0VBxiLB32MOBhD+NsCbE0wjjLqHN9hDndf6cVpqsZ+Ht3smxCWhLeGi3s+tYa0oTAMDf0+hIzl3nRGDyRgZilBsSQw384iEAACAASURBVIoOJlc8njg8/AI4D222F6qCQVcBHa6fvCa4tiVnaQKoMiSqeB7GpA0rwoGEh84s7QeT8gRgxEgi0GErlBsS0y2JKCcCkxI9ZDyxQrsTTMEIS4/RBYMxDagyNJSbErlUUkMAel1Cp+OhO0svdmx8uOX11PV6hNZEdq18eUgcEUzaEoDRuhyFLscfqlJjaijmatFJGV002Of5qwJdKeoJzbLDoAfs8jy8l1Ao1f2JhEV69hYNDnjk/367BIef9nOaX80vuKvlFHQ6Cq22ysgZ/okyhAgmARjhFwu6iGl++9QKg3/QJqtIEyiKaphtSbQ7hA4nPa0iWTAUUXJVADCEh1JDokwPPhkgAH0eocdR6HGJJ/LlOE0AlYZEtaXBytYsM8t55Ne/tdke7Bz7dchoAjBi0CPsGPKwJ6FQnewYpXFF6aQYUmCGJfxOgw6h3fbQm4XZJ5s8J3mBabcBTXgo0gWKNYliXaR9PgfB73LY5xF6XUKfy3UoYcDL/FOXUH4vi1yuzQokARjhKMLeYcL+BKHC8BOBaAiKoIJSZgiUGTqGR4oGHcXd1ULGI79VaI/jF4HoEohJiQIpENUEohpgCUzqiJZLQEIpDCl//segSxhQ4G6VIVKq+zf+oFeSclm/53f67AlBz5ZAE4ARigjtNiWnq/ldpUq4TmDSIlJgdkTDTEui0yG0O9m5J8WmzlVAr1LoPeztugAMIWBIAQ3+Ui8EIMj/U8H/vXNIwFX+/j3XlYaTBqDC5PHVU0EEdCePtIZplktWJACj9boKva56f4mKG05MmkwO5agyJQbckfkD3IglH7gEuEQYOu4ePf80hJUl36+14oXVyTm4v++oUNa7ZF0CMGJYEXYPe9ibGGk5yWdRp6JAF6jXNcyOaGhPNhgK4w80Y/muRE827dEFL/NPUoKA1oSHzixr3JNqWZsAjPAIaE34Q0OKNX8Zi48RTp4ugOmmxDRDotfzv67ZdFaVMTZxUvhHRqtNmfbC0DDrdxUOOP41Mdf398cj6xOAEURA3FWIuwpRTaDK4O2BqRDCP/dbokskCGhPzh/w8uGnnrGQsCRQbWioNHmZf7IIQKdDaLPdjI7izQY5kwCMNuQRdnujtgdMPsM6FZYAZlkaZpjJ+QOOClWhC2NhU6z7+/vFmgQ/A02OS0Cb7V/v8rWJVU4mACMObg8kFIqT+158emDypPCrhStMiUHljyfucnL3jCtjYSKFPx9kGi/zT8mgR2h1FLpz+Px+quR0AjCC8H6XwYj0q94rufJ1SmJSYE5Uw+yIRIdDaOPBLowFwpR+j5QqU3DDtCnodvwbf7+b77f994UiARhtWBHeG/awb9hDueH3zefmQpOnCYEa0y8u6nP94zBxHvbCWNoVaQLVlkQZ9+afNI+ADsdv05v4f+3de3Bd93Uf+u/67ccBQBAk3hRFEQRJWbISJ27VW89N3CpO0qRP124c6VrPKJYtS7Ryk2nS3Ny5N4rbOtM4cW1Kih35EVumKEdy06R5OGO3ia/aTsbtrXpjx5FCmQIBkSKJBwESIB5nP9a6f+wDGRQB8AA4B/ucfb6fGY9nQBBYks7ee+3fb/3W4nP/KoVLAJalQHbcLVZ0eYL+0MPugMdiNksAdPkOXb5DVLJs/kCUImYmQFQzAqAndBgMPHQ00zjIBpO16TVciNJCH+PbqsImACvNpobZxQRhWTAQCvoCDywV2LzQCa5fMX+gaN2xiLZbUFnm7wsdAt6bNm220q3vUsJVymq0RAKwLFLDmSXD2SVFT5CtCuzg9sCmCYCeQNAT+FjUrE7gQmzsHU9UpR2VyajdAXvzb5ZaNoZ3Ik6xyNf9DWmpBGCZApiKDVNxgh2V7YFebg9sSbsTDLV52FcCLsQpJmPDIlcFiFbV4zsMlBw6+QKyaZEBE+xfsiUtmQCsNJ8a5hcTnFkC+gOH/tAh5BGbTfMEGAg9DITAXJKtChRhahbRVvkO6Pe9yj0m72ia11yaHVGeYTX/lrV8ArAsMeBclLWB3OULBgKPLYe3aKcv2Ol7iNVhsjKVsFUbblDraneCwZJDj+/Ad4vNMQDTkWKck01rignAG9jr89aT1ycScprW1gROsLckuK7kcDHOjhLOcf4AFdwu32Gw5NDFm8emxZaNiZ+IDAmXEWuOCcA6licSnllK0RtWegowhd80AdAdZAVPi2l2TJPHdKhIHLL25IOhQ4n3ik2bTw3jkWKG48vriglAFRTZTOjJSLGzUjTYw7M6W9LuAfs9h+vbHKajbCrhtWfXEzWm0opjfHzh37zp2DAep5jnCuG2YAKwQXOpYW4xwemyoD/IphIGzPQ3zQPQH2bFl3OpYTJKMc3uQtQkOn2HwcBhty8cyrNJiVVesOIUEev6thUTgE2K1XC2bDhXVuz2s+2BnSwa3JKdnmBnu48b2gyTkWGKNwRqQAKgN8iGj3XwdX/TFlJgPE45lCdHTAC2yADMJNmRlHYP6A889IYO7OK5eYGsKBpMsu0BFg1S3nwBBkLHVb8tMAMuporxMkeONwImADW0mAKvpileqwwiGixxbOdWCIBuPxuGsphm8wdYNEjbrc0J9vAY35YkCkwlKSbKiojP/VyYc4tv/BoTgDpYOYgoKxp06AnY+WMr2j3Bfk+yosE4e4NYYtEg1dEuP2vT28VpfJu2qIbxsmI6UfByzY+qTt01Njpx5xu+zgSgzrKiwRSny8qiwRrwUOnYGDhcThTjsWEm5g4i1YYToDfIjvFx9W5zDFkvlfFYcZnd+hqDc78nuPpEJROAbcKiwdrr9B06fSAuucqKi7HTIG1K4LJJof2+B77wb05qWfHuRKyIeB02DAVSMf3Yan/GBGCbXV006NAbeiwa3IKs06CH60rATJz1a5hjgRFVoaMyja+H0/g2bUkN5yPFNCeBNiQxfPSe0dETq/0ZE4AcZUWDijNLyk6DNZCNJ85u5hxPTOvZ7QsGQ4+rcFtwMTZMRClmmWw3LFP9rwt9vY9idPU/ZwLQAK7qNFjKKt95a9q8leOJpyqrAiwabG2CrE3vQODQzvP7m5IaMBWnmIgUZW7vN7qXNG5714MvvBCv9Q1MABrMXGqYW0gRiKKv0iEv5L1q0zwBBiurK3NJNlTkIguTWopfGVHdHzqwg/fmLKbZ3v4FNu1pDqrfjmF/7/6zf31hvW+7IgFwqnMQVsA0gtgM58opzpVTdFdOD/A40uYJgC7focsHInWYiBVTsYK5QHG1OcGeyv4+d9Y251KiGI8Ms7xQmofpn4npe+5/9dWZa33rFZfFo4C7cfjgawD21C042rQ2l/UU6ON44ppQADOcMV44nZ5gT+hhVyDcRtuEbJlfK8v8vC6aix2d7+n5hfWW/Ve66vo4duDgr4rgl2ofGNWKE0GvnyUD7EVeG/Np9qbD8aPNqzsQ7Ak87GBh36YsLRfORspum01GgRkneODukZF/v5G/d9WVcnz//u5U/Jecw2DtwqN62eE5DITCY0w1kphhIjJMxsqeAk1gubCPjXs271JiGI8UcwmT3yb1NfPc++45efLMRv/iqlfM8QMHftzEfQUAN52bhC/frXAOeSPcMkPWU2Ai4tCSRuQJMBBkxZ3srLlxKYCpiMv8Te6iwX7h7lOnPrdal79qrHnlHB8efsggn9x8bJQHEWCXJ+gPPeziUmhNLKTARJRiOmYFdN4CAQZKHgZYB7Mp2TI/h2o1OzMcTyz9+fvHxs5v5eesewkdGx5+2CBPuGt8HzWmkgD9oYf+UOAJ/xNuVaLLxVEpJ5pts7BS0d/Hiv5NuZRUmvYkxmX+JmaKb4noI3ePjv7nWvy8a15KXxw69C7n7GkAO2rxC2n7OQF6fEFf6KGTr001MZMoJspsOVxvJSfYGzr0hKxx2SgFMBWlmIiMTbCanCrGnej/HY6O/vbtqN3iTVXX1LH9h28RL/0yILfU6hdTPjqcYKBUORuddzAFsJAutxxmAVUttXuC60oO3Z4DF682pmzZltVUpGB+2txU9bI4+Vipvf03bn/xxcu1/vlVX1pPXnddx46w/dfg8KFaB0HbzxNBXyAYCB1KXFPdssSAySjFBCcSbkmbE+xdboXNj+WGzK5o2sNPYHMz1TKcPGkiH7l3ZGSiXr9nw5fY00OH3gGkn4Zzh+sREG0vAbDTd+gPHHazccqWLZ8eOF9WLDARqFrJAXtDD70h16U2Qs1wobK/v8iqvqYnAPpDhz0+4tDzfl+cfuHsrr1fe8fzzyf1+n0b9uy+fe1xEPwfpvaL4lyp1kFRPkLJPnz9oYPP168tu5wazpeVswfWEbpsqb+PfSw2JFLDeGSYihUpp102PSfZaPjBknf17BfVcxD5bQCfu/lbL5+q5e/d0jX3xf37h8Xzf02An6xVQJQ/QdZVrT/0sJNFg1tWNmC8nGKKo4lfVxLgujYPvXzwb8hcYpiIU1xMDPwoNT8PQH/JYTD0rjmoSgETxVdE7ImbvvXy1wRbP5Vck2vv+NCh/zWV9NeduB+sxc+jxtFeKRrsZdHglqWWFQyOR4qkRW/eHZU+/T0cy1c1BTAdK8bLikVuKxVCIMBgyaEv8LCZdi2meBGCj6WJ9/T3vvhitNk4anYVGiBPDw//QwD/SiB/o1Y/lxqDJ0Bv4NAfeGj38o6muakZpmLD+UgRtcgNvct32BMKJ1puQKTARKSYitOWTRiLpuQEgzXsZ6HAGQf7N0nsf2YziUDN03AD5Omhg+8yh192wFtr/fMpf52+w0CQzR+grZmODeNRivkCntdyAvT6DgMlh3aeNKna5crRUg6mKo4OJ9hTOX5dF6qjIvilN33rO89upC1w3a5KA9xX33TwF+YS+/mySV+9fg/lJ3CC/kDQF3hg8fbWZDf9FNNx89/y25ygL3ToD9iBslqGbJl/ItJCJoOtqst32FNy6NqmWioD/jMUH3jzX544Uc331zyqb99yS48fJPcp5AMOuBkA5lLD+XKKS1zHKqzdlTe97fqgF1WsWWX3VGxNNaTFA9AdOPSGjoWjG5BU6kImI0PMqr5CEAA9ocOeMJ+VLwXKYvgXN3/rxOPXWg2oWXQvveWmt8DhZ0xxl3NoX+17FjXb95yOuLRVVG0uay7Uy2EtW2IA5pMsEZhJGrOjmwDYHQi6fQ+7fcDxbb9qC2k2gneay/yF4VeO8jXKhEoDnt3RPn///m+cWVzre7YUpQFy4vve9A4YfhFOfqzavxdXzrBO8gxrYTkR9AaC/sChg5nAlhiyLm8zseFSoshzl8AXYJefNY3q8h1YD1o9A3Axyar5OWK6OEoOGAw99IWNd1LKDP9pR8f8O9dKAjZ1ZzZAXnrrzT/qNP0ViPuBzQa33MVqvKwcVlFgnV62KtDNM99bZshW0mYTxWySrRLUswGcJ4JOT9DlZx0j2x27RW5UaobJyDARt86pj1bQ6WWFfbsafF6FAcfe/M0T9672ZxsO+6W33HyrIP11OPeOrYeWMVw5rpKKKRCgL8jGE4cNsERWBGZA2QzziWFBgSVVLGnWKW4jV5IHoOQJSiJo97KtnB2+Q4n/mTZtSbOXmwsJG0AVhQjQ7WfL/M00WdUM73zzt0784Ru/XvU/wYv/y829EtmvGfDTro6nBxa1Ml0t0q23OaKGJALs8hwGeC68bgxAqkBs2UpbCoNCABgE2Vu8J9mSfuCk4ZYum9mlJNvfn+NQnsLwKi8vg8368mL65zd/6ztXNeqr6p/kxPff+O5U3ZPOob/2ka0uUWAyUUyWU0S8igqr5AT9lcYYm+mIRdQIuJ1ZTKVKUXNf2Nz1LgqYLGHXm0+cmFv59XVvud++5ZbQ89OPi+Dh+oa3vplEMVFWzLFwprCcCHr87GJj0SA1i8iAiSjFZGQsaC6QnZ5gsAn29zfiUpR879teeuWvVn7NX+ubX7n14K44Tv4DRG6rf2jr6/az+eALKTAepzxGWEDL7XGnYkWnl60K9LBokBrUfJrNdJiJN1ZrQY2tN3AYLDl0NOMy/zoMwJny1QM4Vk0A/uL7vm9HlJS/KoK31T2yDejwgGHPww0lD1NxiomycnuggC6nhsuLKU4vpegLHQYC15z7blQoZsBMZX9/PmWFUlF4IhgIspqkRji/Xw/zqWEp0YU3fn3VBKANS58GpKEe/iv5AuwJPewJPW4PFFhiwPly9qbV5WWVt7tYKEDbLDFgKlIe4yuYdg8YCDz0BlL4JlbjZcVqO/5XJQAnvv/Gf2SQO7cjqFr47vaAYTJSXEgUvEaLxQy4lCguJcqiQdo2Zc3e9qd4IqlQdvuCgdBDV4vcQGaTrJuorFLGeFUCoHC/2Iz/Wjo8wVC7h33mMBUrxiNjtl5AZTWcWUpxtqyVokEPHc1cnksNZy7JWpbP8hhfYTgR9FWW+dsKusy/mlgNp5bWbhV2RQLw0k037TTg7c38r8cTwWDoYSAAZtMsEZhNmL8XzcqiwR2+YDBgp0HaPANwIc6akS1wO7EwQicYrKwYttrhotSA7ywmiNd5/F2RAJRLMtQGK8S/Jqn0LN/lA0vqXm8uVM+2qZSP+cQwkqQIltKs02DJISzEp5jqLa1M45uIDTFXDAuj03cYDBx2+1KYY3wbkWj28F+4xgPvigRgfHGpZ6ijVM+4ctHmBPvbPFzf5uFCpJiMFYvM8gsnNuBclOJclKI7EPSHHscT06qWKvv7F2K26S2K5TG8gy0+gKyshu8spFU1pLoyAUjd9B41lAq6R+IBGAizavLZ1DAZpbjIc7yFNBMbZuKkMp5Y0Bt6Td3Ji2pjLs269V3i/n5hBC47xtcXOlx90r21XEoUI4vVT9m9qghwMlbsKxX/VtnlCbrafUSlbFLXZJyCc4iKZ0kNry4ZXltS9IYO/YGH9uJ/vGkFM2AmzcbwznPlrzB2eNn+Pmt/Ko1+lhQTUbqhxPaqBGAiMgwE1jKNV0InuL5NsLfNYTpWTETGJh8FlALZXm+k2FlpOby7QG0+6WqK7/4354mg4ugJsgf/Do8jrABgITWcWkyxuInP+NXHAM0wspji5h1rdgkuJEHWBrI3ABbUYaKsmI55/reI5hLDXJIilBT9oUN/6LGnQIHEahiPs/P7XNUrBl+A/tBDf+AQ8rkPIHvrP1tOcb68+e2sVZ/ylysZxXCLrpV2OMGBdg/7Sh6m4qxosMw3iMKJDHitrFlPgcChv8lmfNOVFlPgPGeFFEq7y4by9PgOLbIoXZXZRDG2tPXn0pqv+RfibHr4ULvXsvsrvgP2lBwGQ4dLlaLBS3ylKJzsDLjiQqzY4WWnB3oDadnPfbPJCvuya5NXZ/MTALuDrLdHp8/X/ZXKajhTTjET1+aTvu46/1SsiA041O4K3yt5PSJZ+8jdvo+yARNlxVRcfaUlNY/51DC/mOC1JbCnQIObibOOfazZKQZfgN7Aw0AohT2Jtllp5YjzRLm229LX3Oi/lCheWjAcbPPQzuVRlAS4oc3h+pJgOsmaiLBzWPFc0VPAdxgoOezk578hTMWK82Wt6pwzNb5WGsqzUQZgMlKcLdfnlFpVlX6LqeGlhRQ3lLJ9UlruLZ31l75cGUQ0HXPvsYhmEsVMomh3goGSQ2/gwKtge6lVHvys6C+M3ZXEms26rrbcmvpsOa3r573qUn81w9hSipnEcKCN89lX6vQEne0ebmjzMBkrJnmTKqRFNYwtpnitnFYGi3jcHqgzBTAeKSbKKWq07Uk58gToC7Nrp8Rr5yoGYCbOCpO3Y4Vrw2f9ZhPFt+cNe0OHPSW+B63kC3Bd6LAncBxEVGCJAufL2TI0twfqI7XswT8esdamCLKOnFm3Pj41rmYGTMeKc9H2bm1t6rC/WlaJeCHJugbu4iHqK6wcRFRWh8koKxrkAYLiWd4e6PCAwcBDT8iuZFuRAhgvZx3NeL00v11+1rRnp8/rYjUGYCrKtrbyOGq+pW4/i6nhOwsJunyHfSXOZV9NyQn2tXnYW3IsGiywhRQ4laY4U/5uc6FW70u+EWqG8dgwHqXgollz8wD0htnxaVbzry4FMFlWjMea6xTKmrT7m00ULyXZcuj1bfyPvhoWDbaG2ICzZcW5sqIndNgTOrTzeliTGjAZZ93MuMff3Eoue9vvDRy4I7a6uHKMvFFmz9Ss368BmE4U05ezoSt7mf2taWXR4FSkmIhZNFg0BuBCpLgQKbp8wWDIrbKV1AwTUfbGzwd/c9vlCwZCD10+m2etpayGc5FiOmqs9vJ1afi/fOPrDSpvQEwHV+ULOw22gtnEMJtko4mvCx16W/gobWqWVfXHyqX+Jra8ojkQOrTxRW9N86nhXFlxKVU0Yi1rXSf+XIizZe5dQXbj4/Sm1b2x0+BklGIyMlY/F8ySGk4tZccIB0MP/WHrND4pa/bgn4oNys910yq5rGlPX8hl/vXMVOpZLjdQvVeK8lXB1H3knwG4GBsuxil2eorB0MNuVketqSTAvpKHvWF2HnQi5gzzookMOF1OcTYSDITZvqlf0ERgLjVMlLOTEtS8uirV/F0cob0mRbb6Pb7NR/mqFYhsfwKw0lxqmFtM0Fb+brEIV49W5ySrpO0NHeZXFA3yNlocqRnOlQ3nKwWDg4FDRwFeqxTAdGWZnydempcTQW8gGAg8tOhg2KrElVXbiSYcP72tCcCyJc26Cr4Wpej3s+EPATOBNe3wBDsq44kvJNlAiKsXc6hZrSwY3OE5DASC7iZMji+nlv1zMFFtaqETDIbZiSWPr/trWkyB8Sht6hezXBKAZYlmA1fOR0BP4DBYcuhotrveNvIdMBh6GAg9zCVZp8FLXFotlPlUcSoFXi1nQ4h6w8buMriYGmYSxYXYcmlkQrXT5WXV/Lt84TL/OmaTbJm/CAXbuSYAy1bOY+/0BIMlh93sHLUmAdDlO3T5QKQOE5FhqkHOlVJtpJXhN1OxIhSgO8yuiU4v/6NW86nhYpw9+Btxr5Oq5wToDRwG2K9iXcvPqPGyYrFAn/mGSABWupwaLi+kCJ1iIHDoD4XLUOsInWBfm+D6NpcVDUbaUJWntHWRZe1xx8sK32Vval2+w07PYTvGcSypYS7J/jebNt8+J12Ny/zVSQyYiFJMRsVsVNVwCcCySLN5A2ejSiEKM9R1CbJtlJ7AYSE1TMSKaR65KpxEgWk1TMcpgBSBE3R6QIcTtHuCds8hBDa1hKtmKFu2t7moWQHffGp84BfITj8r6tvNZf51LaphvFz8wuuGTQCWqRkmo6wKfqcvGAx4jPBaOjzBAc/DDaVs2WqiQY+l0NbFaphRYOb1ptIpgOwNLxBB4Aw+sopuEQAmAAxq2XemZojNEKkgYbJYSA7ZiSK+RF3bpSQ7vz/bIllvwycAK2XLkAlK5ez8dG/ggd1V1+YJMFC58Gcr57EbtSMV1Vakhgi2nA8A15w6wQ9F0YQCDIQe+gIHnz3Y1qQGXEiyLbZWe1FqqgRgWVkNp5cMr5UNPUHWU4CZ7fq6PEFXh4dIPUzFWafBmJkAUeHs9AQDJYduPvXXFb2+v9+6XVebMgFYpmaYigxTy9sDocMunh5YV+iAvSUP15WAi5VOg3MtstxFVFSC5Wp+jmW/lstp1pZ6Ji7y7n51mjoBWCnbHqicHggFfdweWJcA6A4cugOHxRSYjBUXovS7K8ZE1PBCB/SHDv28363LkLVWH4/YWn2lwiQAyyI1nFkynF1SdIfZpD02F1pfuwfs9xz2tTlciLKiwSKddSUqms5K057uIP++EI0sO8anmIwVMe9pVylcArBseTDDcnvVwTBrr8qLZW0OlbeJ0OHyiiEuvGyI8rd81HcgdNjRwN0hG8FCapjg/JRrKmwCsNJ8qhhZBPwlRX8o6A88tPBI9qp0eoLODg+JOUzGismyImImQLTtfMlOPfWHDgEP76/rYmwYj1PWNVWpJRKAZcmK6Wu7/WxVoJOVsuvyRXBd6OG60MPFRDERGWY5f4Co7jpc1ha9hyuX60otq2GajJTzKDaopRKAZQZgJlHMJEC7UwyEDr2BwDG7Xtdu32G3D5TVYTJSTMate3yGqB5EgG4/W+bv5DL/upY0W+afirjMv1ktmQCstFgZTXym/N2hGG0sGlxXyQn2tXnYWzJMJ1mtwAIzb6JN8x3Q53sYKDmEvP2sa3ka32xirE/aopZPAJaly9WikWKn7zAQOOxihe26nAj6gmygyPzy/IGIRYNE1Wp3WdOeXt+B7x1rUzNMxca25jXGBOANDFmGOZsowrJUztg6nrG9hh2eYNjzcEPo4UKSYiJSlLkuR7Sq3UE212QnbyzritQwHhkucNx5XTABWEekhteWUpxbStEdZMfjuC+3Pt8Bg6GHgdDDbGKYjFJc5JVLBA9AXynr1lfibWRdc4lhIs7uHSwzqh8mAFVQZFP1LsSKjsqSXU/gwPMDaxMAu3zBLt9HWQ2TsWIqVvAAAbWaksvalPeGDuzSuzYFMF2ZXrrAbn3bggnABi2oYXQxxZlyil7fw0DoUGImsK6SE+wredhb8jAdG6aiFJd5gVPBdXnZMb4uzidZV2TAZDnFZKxc5t9mTAA2KVFgPEoxEaXo8gX9oYfd3M9blwMqRYM+FjQ7PTCdKFjTQ0XhUDlNVOKE0muZW9FtlPLBBGCLDMClxHApSVByQH/A+dvV6HCCA+0ebjD3enUvm3hQswpcpVsfh/KsywBMR4rxmMv8jYAJQA2VFThTTnE2yooGBwL27L4WTwSDoWAgdJhLsvHEl2Ke76XmsMPL9vc5Z2R9sRomKtt/MS/uXMSet/DGrzEBqAO1lYOIBAOBQ0/IG8R6BECXn+2XRiXDRGSY4tEfakCCrCvmYImngq5lPsl6888wqc+X6sQ9Y6OT977hy0wA6mw+NZxKU5yOlosGBSXuDa4rdIJ9bYLr21w2wztWzDMToJx5AvQFHgZDQchreE0GZNdtpJjnMn9DMMHvCq7OFSwC7QAAGGVJREFUwZgAbJPvFg2CRYNVWh5/2hM4LKTAZJTiAosGaZuVKr0teIxvfYlZpZuqIebh/cahGvuB/7HV/ogJwDa7smhQ0B84Fg1WocMDhto97GPRIG2TTt9hT+CwyxdwTtja5lPDeKSYidkGvCGJ+8h7T558ZbU/YgKQo7JaVjRYZqfBar2xaHA8MlziMSKqkeVVp8HQoYPX4rqmE8V42TCf8vprWKZ/ev3Q0EcwOrLqHzMBaACrdhrkcJB1fbdoEIjUYYKdBmkLPMmKdQdCQcALb03J8tC0WBFzBa7RfTM2e887nn8+WesbmAA0mOVOg6dF0RdIpdMgb0jrCd/QaXAySll8RFVpW27TGwgc1/nXtJAaJqIU07GBOXYzsP8pQfDj9788cnG977oiAQhELqUs3mgIqWVTsCY4nrhqKzsNcjwxrWenL9gTsk3vesyAmSTrzc/W3U3E9I+XSqX3PnDixNy1vvWKz74Bcnx4+DQg19cvOtqssNJtrI/dxqqWGDAVZQ2GIi5ZtryewGEP9/fXlSgwlaSYKCsiXjLNxfCr4ejIL98OpNV8+1VXwbHh4V8RyKO1j4xqRYCs0yCLBqtmBsymWdHgLAsFWoonQH+YjeENebmsKVvm53yOpqQ6Abifunts5E828teuTgAOH+6SNH2RqwDNocPLjhJyD7N6S2qYjLKiQa5sFlcowGDJQx/P76/JDLhYWeaf48XQpOz3VeTBe0dGJjb6N1d9YhwbOvRD5uw/OfC6aRaeAL1B1mmwjUWDVVFkLZvHI8USX3kKo8PL9vfZn39tXOYvANUJ89zP3j0y8jurdfmrxprXx7EDB+8TwRc2HRzlZqefnR7Y7Tk2MKnSXJItf15MFayDbU5dvqsU9vFDv5ZFNYxzDHdTU8Ac7NNBHP+fd5w5M72Vn7XulXLswMH7TPA5rgQ0p9Blvcv7A55trlZkwGRZMclBRE1BBOj2HPaUWNi3lqz7qGK8zGX+AvhGKnjkvpGR/1GLH3bNK+bYgQM/JuKeBbC7Fr+Qtt/y9LKB0GEn346qogBmKtsDC3xVajhOgL5Kxz72yVhdaobJyHgCpgAUGBPBL50cGXn2w6hdK4aqrpwvHT58KE3T5wD5m7X6xZSPdg9Z0WDocVmnSvOV0wPsdZ4/v1LRPxjyKOxaFjXrzT8dG5T7WU1NgRln+qux2RP3j40t1frnV30JPXfLLWG0sPBhiPsXyHquUBNzAHrDbFWgnW9QVYmX36giRcIb67YKJOvY1x86cKV/dRdjw3icYo57V01PVS87cY/Flv76/WNj63bz24oNX0pfPHDgbTB8xjn3lnoERNuv08uKBlk1XR3OO98+oQB7Kkf5+NZxtdSAqTjFRGScjlkM8wZ7wgXBb9z18stT9f5lm7rfP3nrrUHHhZmfNdNfds511jooyocvWU+B/lAQclWgKpdTw0SlqppqJ3SC60rZqGx+Eq+2VKnmvxAre/MXgeosxD0uof+J7XjwL9vStXVs//7rxLmPqLifclv8WdQ4RIBdXjYZrcvne1c1IgUm4xSTkfL0wBaEAlxXeePnDeVqFyvHVdnNshhUdcqJOxpb+kQ9l/rXUpNr7IsHDny/iPs1AX68Fj+PGkfp9fkDDh6bClyTApiOsyNXi1ySrVrgBNdV9vj5KbuSIptnMR4pl/mLQvVVE+83FsoLn3vw3LmFvMKo6bV2/MCB29Twr8W5t9fy51L+nFTmDwQOO1iFVZXZxDAepbjEJYE1BZJ17esPHbjrdKWyARPllC2rC8RM/8rgfXSxd/eXHnzhhTjveGp+yRkgx4aHfxRmjzpxP1jrn0/52+EJBgKHbhZmVWUxBSai7EbO+3gmdMCe0ENfwAf/G2WJY7bMz89LMRjwvBN89M6RkT/ZbNveeqjbpWeAPD106DaR9P+CuB+p1++h/PgO6PU9DJQcSryJX1NsWSLQynUCbU6wp+TQy+K+K6gBF2LFRJxisapBrtToFDAx/T0DPnrv6Oh/yzue1WzLNXj80KFbVe0XDXgPiwWLRwB0VeYP7GLR4DWlAKaiFOORImqRWq5OL3vw7+J8iitEmnXqm4wMKXtLFMUCFL/tBe4T7z158pW8g1nPtl6KXzp8+FCS6M+J4H4AHdv5u2l7hE7QHzr0B46d2q7BAExHivNRcQsGe/ysXe8OfhiucDnNjvHNsJq/MFQxLs4e13Lpt+47+9cX8o6nGrlclU/tvbnXlcofFMiHAOzJIwaqL0FWNDgY8OZfjdnEMBGnuBRb42wQblLoslMjHEJ1JQNwITZMRCkWWNVXHKrfVs/92z7nnvmHJ0+W8w5nI3K9Or9y+HBpKrE7IPZzDnhrnrFQ/XR4QH/goTcQOK7/ritSw2SsmIoNcROtCjgAuwNBb+ChyxMu86+QWHZ2fyIytpAuEAO+CtN/e/fo6H9spMK+jWiIy3S5YBBOf9Yg72SdQDH5ks0f6A8c2vhmeE2ziWIqMlxMG3Ooiwiw03PoCQS7fW75vNFCCozHKaYjVvMXhapGTtzT6vDxe0dGvp13PFvVcJdsZfLgh6D2Pji3M+94qD66fEF/4GF3II33IWwwaoZLqWEmNswm+Z4g8CoP/d2Bw25PwJrPKxmAS0nWCGqOy/yFYaqTcPJJD/jUnadOjecdT6007L33szfdtLNUTn7KLH3EOXdj3vFQfYQC9Ice+kOBz3XjazIA82mWCMwlhstpfWsGnAg6HdDpO+z0BZ0eE7bVLA/lGY8MURNt3dD6zPSvROTjserxeozjzVvDX8uPAu7GoYM/Dmc/A8jfzzseqo+saFAwEHroZKfBqhmAhdSwkBoW1bCgQJQqog0+gwRZ2+eSA9qcQ4cDOnzhqOhrKGvWtOdCpODx/eJQ2J+I2SeaeX+/Gk11dR87cOAmwD1ipvdxCmFxtbuspwCLBjfPkDUeSsyQGKBZVxKYCUQMDtnbvS9ZO15PmuxmkLPZyjE+dusrDgUWBfaUqj5239jYS3nHsx2a8pp/7uDBXZHiPpg+AucO5x0P1YcnQG/gMBCyaJDylx3jU0xEymN8BaLAWQd7Ii2XPt0s5/drpanvqtweaB1dnmCAneQoB7EBk1HKY3wFo4r/Lh4+sdDd/e8aYTBPHgpzK31qePhNDjgiavfz9EBxsWiQtsuiZsv807GC/fqKQYFUYF+G6tF7xsa+kXc8eSvcHfSzN920sxRF91S6DL4573ioPgRAt+8wUHIsGqSaWj7GN8tl/sJQYNqZftp8/zfvOXnyTN7xNIrC3jkNkKcPHvxhmD0ikH8CcHJtUXV4gv6ARYO0eWrAhcqDf4nH+ArEXhRzRy+XF55+8Ny5hbyjaTQtcbf80tDQgcS5DwrwACC9ecdD9bHcaXAgcCixaJCqEKthIjJMJik4l6c4VPFHnrOjd5469adFPsa3VS11l3x237722AvvgLNHAPmbecdD9SEAdvoOg6FwPDGtaiHNzu9PxzzGVxSqetnBfUE8PHbXyMh38o6nGbRUArAsmz0w9DYTecQZfhLOBXnHRPUROsFA4NAfCjxuD7S8S4lhvJxyf79AFDYiKo+XPHz+9pGRS3nH00xa/o74zPDwYAo8IGofhHP78o6H6sNJZTxx6NDB7YGWYgCmYsVElGKR7fqKw/TPDDhaGh3949vBRoybwTthxddvu81/7fTpd0L1CMT9cN7xUP10eoL+0KEncLwACiw1w3iUjeLl+f3CWILiaTh77O5Tp/4y72CaHe9/qzi2//AtcPowWw4XWyBAX+Chv+QQ8koojKw/v2Eq1oYco0yboHrGPPebuhR+ptW69dUTb3vrOHb4cJek6T2AHAF7ChRat5+1HN7JofZNaz41nI8UFxMFn/sFYfrnBhxd6O39vVbt1ldPvNtVwQA5PnTohyB2RAXvcoCXd0xUHxxE1HwuJYbzUYq5hE/9QlCNzbnfUcFj942M/I+8wyky3uE26Njhw/skTT+gKh9wDoN5x0P14YmgrzKeuMSThA3HDJhOFOfLikU27ikEVYw7wadiS5+8f2zsfN7xtAImAJv03C23hPH80j9T6BFx7u15x0P1IQB2+YL+0MMubg/kTgFMRYrzkSLig78YFP+vODsatLd/+fYXX4zyDqeV8I5WA88MD3+fAg8DcjeAHXnHQ/XRVtke6Asd+0pvs9SAyTjF+TIn8hWBqiYQPAfgsXtHR/9b3vG0KiYANfTcwYO7IsV9EDwM4Ka846H68ATorfQUYMvh+kotK+ybjBTc4m9+pjoJJ096SfKpO0+fPpt3PK2Od686WB5EJGZHAPmn4CCiQhIAXb5gMHToYsvhmkoMOB+lmCwrO7wUgv1PNXc0teS5+8fGlvKOhjJMAOrsS4cO3ZCofsBU3s+iweJq9yqnB3yeHtiKRIHzcYqJyHiGv8kpkDrgdyF47K6RkT/nUJ7GwzvVNmHRYGvwRNAfZqcH2FyoetlSv2GinPKNv+nZBTP5NHz3yXtOnjyTdzS0Nt6icsCiweITAN2VY4SdHi+ztaQGjEeK8SgF5/M0vW+q4Ggpin7njjNnFvMOhq6Nd6YcPXfw4K6yyr0m9rADbs47HqqPTk8wGHroDni5Lcv69GulT3/e0dAWKAy/B+hjd42O/hcu8zcX3pEaADsNtoaSE+ypHCNs1Qsv1mypfyriUn8zU2BaYJ9RkU/eNzLyat7x0Oa06n2oYX1h343X+0HyAUA+AGBP3vFQ7QUiGCg5DAQOrbI7sJgC41GKC7HyFbGJqepfipPHFpaWnnnw3LmFvOOhrWmR20/zefLWW4PO6el3KeSIALflHQ/VnleZRjhY4GmElxLDRJTiEtf5m5kC9gem7ujdY688z2X+4ijobadYnjl06HvS1B7ieOJiKlrBYKLAVJI17ymzXW8zu2jAZy1NPnnvq6+eyjsYqr3mv9u0kM/edNPOUhTdA7OHRdz35B0P1V6HB/QHHnpC11SFIAZgNjFciFPMxMZXxKZmL0LlcV2aP3bv+Ph83tFQ/TABaEIGyNPDw2834AjUfsI55+cdE9WWE8FuP5tIuNNv3KLB+dQwHSumE0PMt/2mpYA54A9N8NjdIyN/xmX+1tCo9xWq0ueHhvYE4j0A0wfh3L6846HaCwTYHTh0+/knAwZgLjVcjBUXE+NEvianiksQfNZT75N3vfqdkbzjoe3FBKAgvn7bbf7p0TP/WGBHxOFH846H6sMTYKcv6PIcunxBW52HERmAxdQwlxpmE8NcotC6/kbaJi9B8Vi4o+3p21988XLewVA+mAAU0LEDB24SkQ+qyv3OYVfe8VD9+A7ocA47nKDdE7R7QEmwqXkEiQFlVSwqsKiGhcQwr2BP/oJQwETxR87ZY3eeOvWnXOYnJgAF9sXBwR3S0fFegxxxwFvzjoe2jy9Zv4HACTxkKwcQQCz7f0X2YI9NkGi2f8/GPAWlOmviPuf77jffe/LkK3mHQ42DCUALMECeHhp6m8A7otDbnXNh3jERUd2dAOzxpTD84gMnTszlHQw1HiYALebZw4f740R/2gQfFOBA3vEQUW2Z6VfMvMdfGXvlax8GSzZobUwAWtRzgFceHv77MHvYxP0Dx88CUdNS1cvOyedT4In7Tp16Oe94qDnwpk84vv/Gg+olDwrwPkB6846HiKqkehLiHjfffeGekydn8w6HmgsTAHrd54eG2jzxb3diDwN4W97xENGavmawx06eOvUnXOanzWICQKs6fujQrZraQya40wHtecdDRFgw06fU7PH7xsZeyjsYan5MAGhdx/fv71bx7zPow865G/OOh6jVGDAqsCckTX/7rldfnck7HioOJgBUlUcB96bh4R824Agg7wTg8o6JqMgMeB6Ko6WxkT+4HWzTQLXHBIA27EuHDt2QqH7AVN7vHAbzjoeoKEy1LOKOK/Sxe0dHv5l3PFRsTABo05675ZYwWii/W8UedsDfzTseomalwFmB/WboeZ+54+TJybzjodbABIBq4unh4beY2UNmuMc515l3PERN4huiOHq5r/t3H3zhhTjvYKi1MAGgmjp2+HAX0vRuyWoFbsk7HqJGo6oJBM95IkfvOnXqv+cdD7UuJgBUFwbIMwcO/F0Vd8RU3+2c8/OOiShPqjolTn7LS5JP3Xn69Nm84yFiAkB198wNN+xNveABEzzogL15x0O0zb6pgqNpmn7p/rGxpbyDIVrGBIC2zZO33hp0TE//UwMedpB35B0PUb0oYAL7A1F39K6xV/4fASzvmIjeiAkA5eKpoaE3e849BLX74FxX3vEQ1YTqHJx8TlL/8bte/c5I3uEQrYcJAOXquVtu6SwvLN1lpkecc2/JOx6izTDTVwTuMQ7loWbCBIAaggHy9PDw28XsIRjeA+eCvGMiuhaFfV3MPlEaHf1jduujZsMEgBrO54eG9gTiPQDTB+HcvrzjIVpJVSNx8oyoHr17bOwv8o6HaLOYAFDD+vptt/lnRk//ExE9AnE/knc81NpMdRJOPpmo/tb9Y2Pn846HaKuYAFBTOD40dLM695Co/RSLBmk7qepfipNPJKrP8BgfFQkTAGoqLBqkbWP6x+bcx+8eGfkzHuOjImICQE1puWjQgCNQ+wl2GqRaUGBRTL8A4Og9o6Mn8o6HqJ6YAFDTO7Z//3Vw/vvZaZA2S4GzDvZEEMdP3nHmzHTe8RBtByYAVBjLnQYrg4h+KO94qPEp8BcC+1ipvf252198Mco7HqLtxASACumLBw9+r6g+LOLuBbAj73iosajijwTysbvHXnme+/vUqpgAUKEdO3y4C4ndJ2JHANyUdzyUqyXAnhLVT9w1NvbXeQdDlDcmANQSDJBnhod/xLLtgXcCcHnHRNvDVCch7onQd5+64+TJybzjIWoUTACo5Tx94MAQgA9C5P2A9OYdD9XNCZh+LDY7xvP7RFdjAkAt6/NDQ22+eHcY9BEn7ta846HaMNX/CsGvnxwd/aMPA5p3PESNigkAtTwD5NiBA3/bmfsQoHdwEFHzUcAc7PdN9aP3jI19I+94iJoBEwCiFZ4ZHh5Uk/er4CH2FGh8qhrBuacM9hv3nTr1ct7xEDUTJgBEq3jy1luDzunpd5nKI3D4O3nHQ1dSxSURfDKx9DEO5iHaHCYARNfw9NDQWwHvCBzuBtCWdzytTBXjTvBx892n7jl5cjbveIiaGRMAoio9tffmXi+M3gfTI3Buf97xtBIDRh3so34cf+GOM2cW846HqAiYABBt0Ndvu81/7fTpd5rhZwS4Le94Ck3xsgl+daG3+5kHX3ghzjscoiJhAkC0BV88cOD7HdzPmOld4lwp73gK5CVR/MtgbOTLtwNp3sEQFRETAKIaePbw4f4oTd9vkCM8PbAFipfNw6+URkae44OfqL6YABDV0JO33hrsmJ7+Saj9HJz7W3nH0ywUNiIm/3Lf0A3H3/H880ne8RC1AiYARHVggBw/ePAHoPg5CN4Nzh5YlQGjgH1koafnKe7xE20vJgBEdXZ8/40HzUt+FpCfBkcTAwDM9BVz7iOL3d1P88FPlA8mAETb5Nl9+3qiIHgIav+7ONefdzw5+aYo/s3eAzf8Oy71E+WLCQDRNnvyuus6drS13W+QnxfgQN7xbAvFfxTRj905Ovo1ASzvcIiICQBRbr5+223+2dHT7zHoPy9iwaACi05x3Dl7/M5Tp76VdzxEdCUmAEQ5M0CeOXjwB1OzD0HtJ5xzft4xbYUCfy2wz4RZ177pvOMhotUxASBqIM/ccMPe1PfvF8j7AAznHU/VVOcg7suAPnXX6Oh/4TI/UeNjAkDUgB4F3JsOHPg7Btyn5v6Zc9iVd0xvpKqRc/IVmPud+fLCHz547txC3jERUfWYABA1uK8cPlyaTtO/B5N3w/Qfw7mBvGIx1UmB+6o5+w/lMPzqAydOzOUVCxFtDRMAoibyKODedOjQ3zDVHzPIbaL6A3BuZ71+nwLTUPy5E31ePO/rL7/yyv/3YUDr9fuIaPswASBqYs8BXnLo0M1pan/LgLc4se9RtUMAhpxzYdU/SHUOzo3AcBJiL5rZt33ff+F/O3lyhPv5RMXEBICogB4F3MG9N3c7Pxl0YrtU0p0QCWDmOecSmEUKXDLnZtpKpfO3v/ji5bxjJiIiIiIiIiIiIiIiIiIiIiIiIiIiIiIiIiIiIiIiIiIiIiIiIiIiIiIiIiIiIiIiIiIiIiIiIiIiIiIiIiIiIiIiIiIiIiIiIiIiIiIiIiIiIiIiIiIiIiIiIiIiIiIiIiIiIiIiIiIiIiIiIiIiIiIiIiIiIiIiIiIiIiIiIiIiIiIiIiIiIiIiIiIiIiIiIiIiIiIiIiIiIiIioqr9/xBtI/S1fWgpAAAAAElFTkSuQmCC;" parent="1" vertex="1">
          <mxGeometry x="280" y="425" width="75" height="75" as="geometry" />
        </mxCell>
        <mxCell id="aRfbpxfdnNTo8kCvjEgf-6" value="" style="outlineConnect=0;dashed=0;verticalLabelPosition=bottom;verticalAlign=top;align=center;html=1;shape=mxgraph.aws3.s3;fillColor=#E05243;gradientColor=none;" parent="1" vertex="1">
          <mxGeometry x="-340" y="270" width="65" height="70" as="geometry" />
        </mxCell>
        <mxCell id="aRfbpxfdnNTo8kCvjEgf-13" value="AWS Cloud" style="outlineConnect=0;gradientColor=none;html=1;whiteSpace=wrap;fontSize=12;fontStyle=0;shape=mxgraph.aws4.group;grIcon=mxgraph.aws4.group_aws_cloud;strokeColor=#858B94;fillColor=none;verticalAlign=top;align=left;spacingLeft=30;fontColor=#858B94;dashed=0;" parent="1" vertex="1">
          <mxGeometry x="-441.25" y="160" width="267.5" height="400" as="geometry" />
        </mxCell>
        <mxCell id="aRfbpxfdnNTo8kCvjEgf-15" value="" style="shape=image;verticalLabelPosition=bottom;labelBackgroundColor=#ffffff;verticalAlign=top;aspect=fixed;imageAspect=0;image=data:image/png,iVBORw0KGgoAAAANSUhEUgAAAgAAAAEACAYAAADFkM5nAAAlPklEQVR42u3de3RU9bUH8O8+M5MECIGg8g5qi6LiA6x6tVYtVaxSrddHIgmCyQRmAop3aV21tw+bvnuttlUujwx5FUhCE6te67OtYn3U+la0WkEReaNAkIAkmZmz7x8JWqlAfpM5cyZnvp+1WK4ls8/s3xmS357f+T0AIiIiIiIiIiIiIiIiIiIiIiIiIiIiIiIiIiIiIiIiIiIiIiIiIiIiIiIiIiIiIiIiIiIiIiIiIiIiIiIiIiIiIiIiIiIiIiIiIiIiIiIiIiIiIiIiIiIiIiIiIiIiIiIiIiIiIiIiIiIiIiIiIiIiIiIiIiIiIiIiIiIiIiIiIiIiIiIiIiIiIiIiIiIiIiIiIiIiIiIiIiIiIiIiIiIiIiIiIiIiIiIiIiIiIiIiIiIiIiIiIiIiIiIiIiIiIiIiIiIiIiIiIiIiIiIiIqLMJW4nMHfuQ9mdba3nw7IuE+iJqjoaIsMAZLudm0fYALYCuhmQd1TwUCAafWD+kmu3u50YERG5x7UCYO7ch7I79uy8XoDvAhji9o3IMFERqbbivh8vqC/a4nYyRESUeq4UABXlTRNV8QdAj3b7BmS43SIyZ1FN8VK3EyEiotSyUv2G4ZkNV6jqU+z800Kuqi4JlTf+D6CuPw4iIqLU8aXyzWaXNp2jwP0A+rndcPqUAGd/aeLr8ZdeuedJt3MhIqLUSNm3vorSpqPU0hcBHOZ2o+lzqQquiNSU3Od2IkRE5LyUPQJQS38Fdv7pTETxv6HQH/u7nQgRETkvJQVARXnDGQCudLuxdEijrGjb9W4nQUREzktJAWDbEkYa7DlAh6aC2W7nQEREznO8ACgsbPZZgkvdbij12FHh4PJT3E6CiIic5XgBMHhA9CQFjnC7oWTCPt/tDIiIyFmOFwCWTwrcbiQZ42dGRORxzs8BUB3hdiPJ2Ei3EyAiImc5XgCIWgPcbiQZ42dGRORxKd8KmIiIiNzHAoCIiCgDsQAgIiLKQCwAiIiIMpDf7QSSYUBuNr5yzhcP+prsHD98vs/fjPD+e19HPG67kvu444bhqKN7d0TCk0+sxt69UVfyJyKivskTBcDAgdm4/KrEN6978P43EI+nPm/LEkwvPQOHH5Gb8DU2btiJRx9+M/XJExFRn8ZHAC469bSCXnX+APDnR//pdjOIiKgPYgHgEhHg4m+M79U1tn24G8//fa3bTSEioj6IBYBLJkwswKjRg3t1jYcffBO2rW43hYiI+iAWAC4QAaZc2rtv/zu278Fzz77ndlOIiKiPYgHggpNOGYWCMfm9usb9972OWMydlQtERNT3sQBIMRHgkm+e2KtrrHu/Fc89u9btphARUR/GAiDFzjjzKIw5ckivrnH371+GKp/9ExFR4lgApFAgy4fLrkh8vwIAeOG597Hq7Q/cbgoREfVxLABS6MKvH48hQ/onHN++N4q7m19xuxlEROQBLABSJC8vB5O/flyvrnHfPSvx0c69bjeFiIg8gAVAilx2xcnI6RdIOH7Nu9vw5BOr3W4GERF5hCfOAkh3owsG46yzv5BwfGdnHL+r+bunNv0JBRuWCOQSg5DHqmpLCt3Om6ivCZc1roDAZPLR76pqS250O29yHgsAh4kIiq85HZYlCV/jvj+8hq1b29xuSlKJWgMgarIZQu8OTSDKVIKBAAx+1iTxiUrUp/ARgMPOnzwOXxx7eMLxq1d9gBWPrXK7GURE5DEsABx0xNBcfPPykxOO37OnE7WLn+WafyIiSjoWAA6xLEFp+VnIyvIlFK8KLK17Dq07Pna7KURE5EEsABxy+VUTejX0v+KxVXj1lQ1uN4OIiDzKE5MA022EfNTowTh23FCse39HQvE7d+7FPS3c8IeIiJzjiQJAEp9g74iNG3biFz951O00iIiIDoiPAIiIiDIQCwAiIqIMxAKAiIgoA7EAICIiykCeKADSbRUAERFRuvNEAUBERERmPLEMMF2GAHw+C7kDszFwYDYGDsz5zN9FY3HsbN2Lna0fIxaz3U6ViIgynDcKgBQbNLgfjjxqCEaOHIRhwwdixMhBOPyIXOTmZh8yVhXYtWsvtm5pw5p3t+Gfb27Bqrc/8NRRv0RElP5YAByCiGB0wWCMO24Yxh5zBI48egjy8xM/LVMEGDSoHwYN6odjxw3FRVNOwJ7dHXjm6TV44vHV2LF9j9tNJiKiDOCJAiDZ35379Qtg/EkjMWHiKBx3wvAefbPvjQG52bjwouPxtQvG4fE/v40H//gGOjpijr4nERFlNk8UAMmQNygHE08twCkTR+PYcUPh96d+fqTfb+HCi4/HyRNGIbLgaWza9JHbt4WIiDzKEwVAb+cAzp57LsYdNwyWlR6HCgwfkYeb//sC3PXrFVj7XmIHChERER2MJ5YB9vYwoONPGJ42nf8+/ftn4YabJuHwI3LdToWIiDzIEwVAmqwCTLr+/bMQmn122hUnRETU93niEYCXjTlyCM796lg88fhqt1MhogMoLa0b3K9flsTjATsSKeLkHeoTPFIAeHQIoNuUS0/E00++yw2EeqiycoV/09rNY0XkRBWMF+g4AKMADBXgMO36d58FoLP7z3qIvguV51WtJyJ1U192uw2AysyZDaN8tlUgkOEKHQ3FCAhGCTBSgXwIfFDkdQfkd/93ILratxtAFJCdEN2gqmtFrFWq8nynvff5+vqynW63MFlCoapAZ2fWACfbVFpal9MPOafbPvtUqDUBol+EymhARwLIBgC7AxDEEA42AoANYCuATVBsAvRtEbwa98mrixcXvwmIt39pUZ/gkQLA2/LycjDh1AK8+Pz7bqeSlsrLm4f4JfpV2PgaRM7evG7z8WIhG1Ds//Bkv9+6A7r/OwwqpwG4WsRGONi4WlX+F4Hc6kjk0o+dzr+wsNk3JLdzHGCdCsFEKE6FNE2EbQ3qyrk7a9mvDQfvQronj2g+FEcL5ByoQqDItrLj4WDjk6ragkCgsS98Y50dbPiCrThJRcYKdKxAxtrAKAGGIobDsi08AuDiZL7n9OlLBvT3+4tgyWVQvcCGDoAKAO2+9wf9ACwAIwCMgOBLgFyqAKw4EA42bQEaH1bB/fC1PRiJhKNu318nVUxfMlQDgZtM41Tt9yN10xYe6nXTpy8Z0D8Q+IHJtaPAXbW1xZucaO/cuQ9ld+756EdmUdJUVTv1NSfyORgWAH3E6WeMYQHQrbKy0tr4/rgzLdiXQ/A1aGwCVLrmsyTne9UxInonYm03hmc2hqqqS/6c7DZcV95wZAzyDdi4CBKbBFifzvZ0fsqHD8AkEZmEWOyX4WDTwg67/ZfpMiowd9qyvGgWzlWxzgXwJQCn2sBgyL5bI1AHb9OcsqaCuNi3AHINgEEOTDIaDqBMFGWIDdxcEWyq9sU675y/5NrtDjXJXQHfHEBvMQ0TwbU9eV2/fv5+iJld32frcgCOFADYsSMb2ZZZe1VfA8ACIBFenQT4r8YdPww+n4V4PFMfA6hVUb7sbLWtws3rcKUlOjoFPeVRsPFIuLzplqqa4tuTccFwWcNlELk5pjgbgKSgsz+UPEBvybayZ1QEm65bVFt8b6oTqKystLZuGHuGHbe+CcHkTmAiuoqUlAoGawb6pd/346o3AJLT+yv2yAiF/iDmD1wfCjb+DP62u7w0IlBaWpejkNkJhL65oy3Q4Hb+XueJAsBN8biNjz5qR+uOPdjZuhcff9z5yd/175+F/CH9UVCQj0BW736f5eQEMHLUIKxf1+p2k10iF6rKhS50mBZUfxUKNsYitSW/TUI7fgZgfMpbcWgjFHpPRbDp54tqp37f6WfUlZWV1qZ1x5xniZRsXodLAQxzsxiaVdb0ZQu6FIovuJRCvgC3Syz36tnBhqkLa6etce9uJE+OlTNdoUNN4wS4taWlKO52/l7njQIgRSMA7e1RvLdmO9ava8WG9TuxYX0rtmzedciDfAJZPowfPwKX/udJGDV6cMLvP2x4XgYXAO4S4PbZpU0vLawvfirRa8wpbR4el9gJbrflYBT63XCw6YiqWoScuP6sWcuP9cXtss3rME2AgnQYvQuXN86B6l1wYdRhfwo5XYGXw+VNV1bVFD/mdj69EQpVBTSm30kg9NlFtcX3ACVuN8HzvFEAOGTPnk68u/pDrHr7A6xe9QHWr2tN6NS+aGccr76yAf94YzOu+6/zcNzxwxLK54ih3BTIRT7b0kgoVHVyokO0MV/8a6JpMOh/aLPCZY0bqupKfpyMi1VWVlpb3h87RcW6HnH7Qk3FLIceqgg2VKrih27nsZ9BUH0gXNpwZVX9tIfcTiZREh14DcR4REVV5UaukkgNTxQAdpK+RqgCG9a34vWVm/D6axux9r0d0CR+RYlG42hufAm3/mRKQvH9+2clLRdKyHESyy0GsCShaBtnpU/XdwiCH4aCjY9HakueTvQShYXNWYcNjF+7eb3eAsEX3W7S/sLlTTerarp1/vvkwJJ7Ksobzl1UM+15t5MxFQpVBRDH94xHZwUNkdri59zOP1N4ogDozSzAaGccb725pavTX7kRO1v3Oprqli27oJrY9sXZ2d74uPo2KUeCBYCInu529gYsQOoKC5vHt7QUdZoGh8sb58CO3qKQMem4TUdFsPFKVf0ft/M4hGxVubti+pLTFi2d8YHbyRiJ5s2GqGnRtzsu9n+7nXom8USPYtr/x2I23nxjM158YR1WvroR7e2pm3Tr91sJn10QCHhi5+a+7pxZs5Yfu3jx1FUmQYWFzVlA7BS3kzch0LFD8mIzASwwDlbM7/UhHQ6ZU9ZUEIfWoG9shV6gAf98AIVuJ9JTpaV1g0X0VtM4Ubm1uvqaDW7nn0m8UQD04CuGbSveW7MNf//bWrz4/PvYu9czK23o8+0W6FtQrLZh7bAErVC0QuxWhQwU6FiFdSmgRxteVySukwEYFQBDcjvHAlaiS8t2AXhXoFtsYJtAPoRiGyy11bb2itjtXYlhlw3ELcUAhQwRyGEKPQXQSYD0T+idFd+trFwRqaycFOvl55EmVOJoqgEwqJcX2gHgWQH+qYrtCnwoop2ADIIiFyKDAAwD9AR0LWsM9OK9rgoFl18YqZ36J7fvXk/kWNnfV+Awsyh9eftu/11u555pvFEAHGRp/Jp3t+HZZ97DSy+s+8wSPfKUKIBnFfoXEXk1LrE3qqunrz3URKJQqOpmKzbwFwp8y+TNBDjNPEU5xjDgEYXeBr/9z0hk+ube3JzS0rqcLF/WpaLyMwCmeYzaum7LFAD39yaHJIkCWAvgXUDfVWCrBWuLAFttjb/TkwuEy5ZfCcHkBN9foXhAoPOHHznysZ4WRV07CgYuBjSU6HsL7DsAPTndJ8dVlC8/UdW+wTAsblkIcdlf6nmjANjvGcDOnXvx8ovr8cxT72Ljhp1up0fO2KwqfxBL/+TL9q9YsKBo92f/esYhL9A9m//mcLBxPICLev7W+iXTZLu2sO05EX2wqmbaimTcqPr6snYALdOnL3mov9//AARfNYm3Fdci9QVAB4CXVfTvYlvPWWK/MGzMyHW9GYkoLGz2qcR+nOCDiVUidnBR7TXPmAYuXTpjD4C7Adw9K9hwgQWpR9fZFCZODJc2XlxVjzReFaCiaFoA09EOxW0Lq6e95Hb2mcgbBQC6ZtivfG0jnvvbWrzx+qaElutR2otC5CFAa0YUjHg4WcPSAoko1KAAgOljA0BxjNEKALHeSEbb/tXSpTP2zJ7dcIXdIc8CGNfzXPTCwsLmrEQmAxpqBfT3orgvkJv/xLx5UzqSefH8vPjVojg+gdDHO+yOK5OxVfLi2ml/mTmz8Us+G48DMNsTwpJvAelbAITKmsqhOMcw7PWs3MGG++ZTsniiANizuwPfvvFePtf3tld8tn/KgvqiLcm+sGr8bYjRfLDcysoVfpMCRETHmix/ty1NegEAAAsXTmutCDZ+T7u+kfa4vfkDo2cDSMqIxOfeH+hd7XbnLd2jFc68h2o4gbxe2BONf3Pp0rI9ycqjurpk65yypovioq8CGGIQ+tWZM5eNTseJcteVNxwZU9xhGBa1bZ2R7EKPeq4vzII9JNtWdv7et9WJzh8ALBHjTufDNevMJpGp0bP3LZFIyTYn2goAw8esulchPXpmvo+l8mWn8gEABf7hZOcfLm04BjD+drrLJyjsHsJPqgV1xesBvdEwzLJs6yqn7lHiVGIqtcAnR1P3LAr43uL6aa+6nX0m80QBQJRqcStrYE9fO3fuQ9kQGW1weaPO2VRlZaUNxSMmMQo51cmcnKaWVQLTHQhFb51fM82xIzhHjFm9DIDRSI8AlzuVT6LCwaYbAXzNKEjwUKQ2OQdsUeJYABAlQCy7xz870Y92Hw6DnzWB9GrWf09Yok+YvF4FJzudk5NETSZ5AgA2ZPXPX+RkTpWVlbZCTN/jjLlzH8p2Mi8TFeUNZwD4hWHYRvXh2nRf0ZAJWAAQOcy2Ok2e8wKwnS8ALOtNk9cLdExhYbPrh+Ukory8eQhMd2FULE7Fs+lArHM5AJPlbznRj3cksAw1+UpL6warWssBmOxR3iliX+3kIy7qORYARA6z/D6jTVFsYKvTObXbe0wnkmXl5xsvXUsLAY2fB8OT/kQlsfMeDM1fcu12AEZL4Gy1zkxFbgdTWNjsy/ZlN5hupCWCGxbVmC+lJGewACBymq1GBYBA2pxOqba2vA2A0ftILG58rns6UNEJZgH4x6L64rWpSxDPmrzcEhyXstwOID8v9nMoDE81k8iimpIqt3OnT7EAIHKcmD0CUOw2en3iPjZ5sa06IEV5JZkYncEgljyZ0vQss22lVd0tAMLBhhmi+LZZlP5pR5tvrpt5079jAUDkMBtmIwBqaWoKAFWjZ9xiSW5K8kp6O80mMCqc2YPhgASrDSNMt3NOmvDMxsmALDYMe9GXE7gyBRtJkSFPbARElNYE+UZH4trWueFgQ34KEjM6nMjqgyMAXRMXYwUmMbaNf6QyR7/qqpjZCsUjCgubfaneO7+ivGmi2voHmE36W92p/il1/7ZVN6UDFgBEDhMb2Sa/30X0etMl66mgij5XAOTndwxFzGf0ey4rHk3pCMARBavXb153bBQ930PfGjQodjgcmyyqoXCwMfRv/9f03HVgc9yKfb2uuuRDZ/Kk3uIjACKnSa+Ogk0bYvW9EQCfbY00DGntnpmfMpWVlTYAo90GrZid7hMyPwKsi6urZ7zndiJ0YCwAiJzniQIAttXn2mHHMMzk9QrsciNPNZyQafnMtt1NfXvke1W1U19zOw86OBYARA4TNXpmSskkVn+jlxsujUxiooYrMiSt/00J9Jby8mbDDbAo1VgAEDlO+9w3Z+9Qo4mOUHFpspoaFQAikjbbAR9Agd+Om64WoBRjAUDkNOl7Q+eeIWrUUYqkaAnm/u9rOAcAtlm7XCF6Rbi8cY7badCBsQAgcphyBMBFZsWXwvxo6GQQqNFKBYGmdAlgwhR3zJ7Z2KcPkvIyFgBEDlOzw14oqeyoyavF9JFBkiikx8dLd7GMHhm4KMe2cXcwWGPYPkoFz+wDcPE3xuPhB1O6fwdRj1iqHSo9X9cvKjeJ2P/ndt77iwf8KV0elxQqHYZbKhhNGkwis10WLduxkwoF+IstGvncv7NlFgSTDS95TAD97gQQdCpnSoxnCoDzLxyH3NxstPz+ZbdTIfoMFTH7ZW3pxwtrpq1xO28vUEs7RHteAai4VgAYfkP2OTYCoJA1kZqSls/7u2Cw5pGA9HsSigmGly2rCDY8tqh2WoNTeZM5Tz0COP/CcSi8+lS30yDaj9me+7am9xrvvsT4ZEV1owBQgeEIQEziruyuV1tb3hZV+QaA9cathCwIhZrHuJE3fT5PFQAAiwBKPwIYHYIiqiwAkkRt6wPDkJQXADNnNowC4DMIiY8ePWpLqvPcp7a2eJNl4RLTpYsA8iQW43HAacRzBQDAIoDSi8LwEYDxhDA6ED/U9Jvy8MLC5pRusiO2/yST1yuwtbJyUiyVOe5vYXXJShVrVgKhF4XKG691M3f6lCcLAIBFAKUPhRit8VYx276WDsyXO+gDALZBiD9/QOwLqczREh1v8npJYPjdCZGa4kZAakzjRPGbUGjpCLfzJw8XAACLAEoPImbfQi3oF93O2SvmzZvSAWCdSYzPkmNTmaPYeqJhyMpU5ncw/dt8cwGYnp6YLzHffLdzJ48XAACLAHKfGg5DK4QFQHK9bfJiW5DSAkAF/2H0ekjaHLLzm5aivZalpQBMH0lcXhFsLHI7/0zn+QIA6C4CprIIIHdY0E2GIUN4kEryCNSoABDbnpiq3OaULx0L4DiTGEvir6Yqv55YWD3tJYH8wjROgXmhUOPhbuefyTKiAACA8yezCCB3xMR6xzTGj3jKOiGvs8V6zuT1KnJ+99I8x8XUP80wZE+g/5AXU5Gbie1tvp+q+aOJoVZU73Q790yWMQUAwCKA3FFdXbIVpsfM2vZFbuftGT7f04YRw2aVNZ3rdFqhUFVAoOVmUbKie15DWmlpKeoEcB0ANYlTkZLwzEbTnQUpSTKqAABYBJBrDCdKycVuJ+wVkUjROgBrTWJ80JDjicXyQgAKTEJE7EcdzytBkdqSpxW6zDjQxm9DoSoemOWCjCsAABYBlHoCfcEwYPysWY1Gy8PowAR6v8nrVeTqcNmyE5zKJxRaOkKgPzIMi8ZEWgxjUspvB74NYJdh2AmI5s1O9D0HtPrNjlKmT2RkAQCwCKCUe940wIrje6lOcu60ZXnhYMOMcLDx4Vmly05P9fs7xYZxx+kDfDWVlSuSfl5KYWFzlsSspQAOMwx9oPtxUtpaUF+0RQHjCYEiWpnohMDftBTtheFum5ZlOXYOzp5sn9nBTi7yzGFAiTh/8jgAQMtyHiBEzurQwJ+yJBaH2ZavUyvKljUuqrvmASdzmz59yYD+2b6vw5biTuAbAPoBgOWTRwCYjVykqZFjVv1t87pj1wI4qsdBomduen9zFaAzATF6tn0gpaV1OVlWbBkg5xsHCyLGMW7wD7wLsbYbAJhs9pMvMf0JgERHAnYB6HEBIdAjASRtMmVhYbNvSF5sMhQzAP3PZF3XaRk7ArDPOeeNxbBh3HmVnFVXV/QhIH83DBMVqzEUbJiU7HwqypefGC5vurki2Pjn/gH/dtjyBwBXobvzBwBVOdPl25Y0lZWVNkR/axongmC4fPm9yViWGSptPC7byn5CgCsTCH+uqqbkkVTcq96KRC79GIKfmkfKrHBw+SmJvKcCRkttFZja23beWNjcb1aw4YKKYOPtQwbG1kPxMIBi/MvPULrL6BGAzs44Ftz1V2zdajZBmygRCjQJcLZh2ECBPBoONs5Tf/z2SGT6ZtP3nTttWV5njkwAMBEqpwKYpGoXdOd0QAJ4pgAAAF92oCbeHrsVgFlnrnqZH7HVoWDDHX47ULugvsjoIJ5Zs5Yfa8XjNwCYCSA7oeQt/MCl25YQ9bUtlljezYAebRDmg9q/BWBc8ArwEoCTDUKuCgebKqpqixf1NKC0tG5wji8wXiFfEZULPkbsKxYkJylDQy7J2AJgX+f/z7fS+pEaeUh2R3xpZ7b1Cxif/Y4AgJsk5rshHGx8oXtC4StQ3WaL7PFZ2KUKX1yR54fVPw4UWMBIhY4FMLETGAtFIuvaj5pT2jzctMNLVwsWFO0OlTX9SCShtedDBPKzuBX7UTjY+BYgLynwogVsisNus2DtBCRq2ZqnFg6H6FBVjFfgPInbJyOh2/+J+6qqS/7s9v0zEYmEo+Fg020AFhoFCr4aKm8ojNRMM5qzoZCXBFpmlqUuDJc1XqFAs+WTd6D4CIJBsJEPQb6tmi/AkQIcbwMnCDBSdd/7eUNGFgDs/MkN8xqu2VURbIwo8K0EL+EHcJZCzgIAiEAA2N1H3VgA7O6ePlm/oGK+2JkA7nPxtiVV627f/CF5sTIoJiR4CT+AkwA9SYBSBWB9cscV9r6Hqt0fQBJ2E9oWt1Dh8m1LSIfdXp9tZd8Ks7kAEJXbCgub/697b4Ee8Vn6lG1y5NMnb4bJAkxWe7+eXT/97BRJ+RzTUsbNAWDnT25qtzt+CmCb23n0lHhoHgAAtLQUxS3BtQmcZe+GOATBdJ/5fyD19WXtEPl1AqFH5edGjTZIWlhdshLQvjqb+8G4L2Y6PygpMqoAYOdPbquvL9spIje5nUdPCdRTBQDQq7PsU0qBm6tqSv7odh69aoPPtxiA8Tp9EfluaWldjmGQ8dHEbhLowyL6H1W1JZdUV894z40cMqYAYOdP6WJRTfFSAIvdzqMnFDjNibXwbovUFDcqcDPS9XGu4MeR2pLfup1Gb0UiRR8BaEwgdHSW5BjtxhjVvUsB9IX5Ko9aln3WotppUxbVTDPeHySZMqIAYOdP6SZrwOC5gDi6vj8JYlB5dPvqjf3dTsQJkdqSOyC4HkDc7Vz+RVxV51TVlPzQ7USSRUTMJgJ+EqffCYX+2ON/e7W15W1QpOnomn4MYDFgTaiqLbloYfU1rgz578/zBQA7f0pH8+ZN6VD/risANLmdy+fYDMGPJeY/qqqu+Mp5DdeYbu3aZ1TVlCywFecD2Oh2LgDWWrZMitRNS6jDTFeLaopfAfBsAqEjEGsz2hioqq6kSRVVbrd5H4W8A+BbHXbnqKraklBV7dTX3M7pX3m6AGDnT+ksEglHq2pLSlQxC8Bul9OJA3hUgKvV33ZkVU3JDxctKUqHTtFxi+tK/qp+TAB0EYCYCyl0Apinfv+EhfXFT7l9P5yQ8CgA8O05c5qNttZt3e2/DkCDi83dAuh8iJ43cszb46pqS35dX1+208V8Dshzz/b2YedPfUWkrqR6TlnTo3GxvwtIEEBWit46BsXTCrnX9unv++ps82SIREq2AZgdLls2T0W+I5BCAGaT0My1A7Jc4/LTyO+mvuv2PXC0ofH2lmwr+9cw2K6329BYe+x6AL/saUBLS1Ec0OkVZU0rVfAjOP85AsAaEXnUVrultS3wZFcO6c+TBQA7/77AXgPISz19taq841QmGgt0wB87YC4KBAT4zLcQUSuazBwW1BWvBzB7TlnTz2NiTxfIVAAnOdDc1ap4CpY8FofvkZraoh0OvAfQtTNbjwmsDx3Kw0hV3TVvApgRCjXeZEVluopeAuAcdG3GlAxxdA2H3+uPRX83f8m12x1vlOAtk6mOorou2SnU15e1V5Q1/koFRebp66RQqOqOSCRs8DMnuqgOt4VLG+6FT26FYiqS2d+prlORv0HxmO2LPebWLP7ecnx/g4qyphtVNJG1oEZuv/MK5OZmp33nn5Xlw10LjX8GAADPPrMGv6t9LhVpPlhVW3JJSm8M/ZvZwYYv2CpfhuiZgDUB0KPQtalKTx7dbUPXc+23RbFSLaxUX/zFRLYSznRdWylbX1bFBAEmAjgGXZ/DMBz8d+heAOsEusYWedlSeSkqvr/W1DhWdNEBVExfMtT2+66EyPmiejpECnDo/q8TwPtQrIVgrQJvi8irMfhe8cpn6KkRgHTv/IlMLKydtgbAGgDL9v2/UKgqAOSPkGhnruWTfrG45EI04LfQCkhUY7Kr3x7f1u4jUikJuidBPtL95xOhUFUg0J6TZ/v9g2wbPsuPvHjUt9MOdNr99lrbvTx5sq9ZtHTGB+jalnghAMyd+1B2tO2jEXHYg/2wBto+ZFli74zFEM/yodVq19ZM+Pw8UwB0dsZRvegZdv7kad3DoEkfoiVz3Z/F9u4/1IfMmzelA8Bat/Nwm2cKgKr5T+H9tek/KmPbirfeTGyvis2bPF+QEhFRinimAOgLnT8AxGI27rxjhdtpEBFRhvP0PgBERET0+VgAEBERZSAWAERERBmIBQAREVEGcr4AsOyk7phGKSDixn7oRESUQo4XADbAhfl9jACb3M6BiIic5fwIgAq3Hu1jbLX5mREReZzzBYDf/zq69lSmPsJSPO92DkRE5CzHC4BIpOgjANz5pu9oC+TmP+F2EkRE5KyUrAIQ6HK3G0o9dnf3PtlERORhKSkAtrcFlkLxD7cbS4fUaUF/6nYSRETkvJQUAC0tRXG15BYA6naD6WDkN91H0BIRkcelbCOgSE3xg1D80u0G0wEIntrR5rvV7TSIiCg1UroT4IgjV30fQJPbjabPUmClPxq9vKWliKs1iIgyhKT+LVXC5Y3fhsrPwa2I08GDWR12ybyGa3a5nQgREaWOCwVAl1CwYZJAbgNwmts3ISOprlNLbo3UFC8BhHMziIgyjGsFQBeV2cHll9rQIgBTAOS7fUM8bi8UfxFL7muPtzfW15e1u50QERG5w+UC4FOVlSv8GzasL7Bs/yixdKgqfG7n5AWWim0DW33QTf4B+Ru5xp+IiIiIiIiIiIiIiIiIiIiIiIiIiIiIiIiIiIiIiIiIiIiIiIiIiIiIiIiIiIiIiIiIiIiIiIiIiIiIiIiIiIiIiIiIiIiIiIiIiIiIiIiIiIiIiIiIiIiIiIiIiIiIiIiIiIiIiIiIiIiIiIiIiIiIiIiIiIiIiIiIiIiIiIiIiIiIiIiIiIiIiIiIiIiIiIiIiIiIiIiIiIiIiIiIiIiIiIiIiIiIiIiIiIiIiIiIiIiIiIiIiIiIiIiIiIiIiIiIiIiIiIiIiIiIiIiIiIiIiIiIiIiIiIiIiIiIiIiIiIiIiIiIiIiIiIiIiIiIiIiIiIiIiIiIiIiIiIiIiIiIiIiIiIiIiIiIiIiIiIiIiPb3/0KI2gMojRyOAAAAAElFTkSuQmCC;" parent="1" vertex="1">
          <mxGeometry x="-110" y="160" width="80" height="40" as="geometry" />
        </mxCell>
        <mxCell id="aRfbpxfdnNTo8kCvjEgf-17" value="" style="shape=image;verticalLabelPosition=bottom;labelBackgroundColor=#ffffff;verticalAlign=top;aspect=fixed;imageAspect=0;image=data:image/png,iVBORw0KGgoAAAANSUhEUgAAAEAAAABACAYAAACqaXHeAAAAGXRFWHRTb2Z0d2FyZQBBZG9iZSBJbWFnZVJlYWR5ccllPAAAAyRpVFh0WE1MOmNvbS5hZG9iZS54bXAAAAAAADw/eHBhY2tldCBiZWdpbj0i77u/IiBpZD0iVzVNME1wQ2VoaUh6cmVTek5UY3prYzlkIj8+IDx4OnhtcG1ldGEgeG1sbnM6eD0iYWRvYmU6bnM6bWV0YS8iIHg6eG1wdGs9IkFkb2JlIFhNUCBDb3JlIDUuMy1jMDExIDY2LjE0NTY2MSwgMjAxMi8wMi8wNi0xNDo1NjoyNyAgICAgICAgIj4gPHJkZjpSREYgeG1sbnM6cmRmPSJodHRwOi8vd3d3LnczLm9yZy8xOTk5LzAyLzIyLXJkZi1zeW50YXgtbnMjIj4gPHJkZjpEZXNjcmlwdGlvbiByZGY6YWJvdXQ9IiIgeG1sbnM6eG1wPSJodHRwOi8vbnMuYWRvYmUuY29tL3hhcC8xLjAvIiB4bWxuczp4bXBNTT0iaHR0cDovL25zLmFkb2JlLmNvbS94YXAvMS4wL21tLyIgeG1sbnM6c3RSZWY9Imh0dHA6Ly9ucy5hZG9iZS5jb20veGFwLzEuMC9zVHlwZS9SZXNvdXJjZVJlZiMiIHhtcDpDcmVhdG9yVG9vbD0iQWRvYmUgUGhvdG9zaG9wIENTNiAoTWFjaW50b3NoKSIgeG1wTU06SW5zdGFuY2VJRD0ieG1wLmlpZDpFNTE3OEEyRTk5QTAxMUUyOUExNUJDMTA0NkE4OTA0RCIgeG1wTU06RG9jdW1lbnRJRD0ieG1wLmRpZDpFNTE3OEEyRjk5QTAxMUUyOUExNUJDMTA0NkE4OTA0RCI+IDx4bXBNTTpEZXJpdmVkRnJvbSBzdFJlZjppbnN0YW5jZUlEPSJ4bXAuaWlkOkU1MTc4QTJDOTlBMDExRTI5QTE1QkMxMDQ2QTg5MDREIiBzdFJlZjpkb2N1bWVudElEPSJ4bXAuZGlkOkU1MTc4QTJEOTlBMDExRTI5QTE1QkMxMDQ2QTg5MDREIi8+IDwvcmRmOkRlc2NyaXB0aW9uPiA8L3JkZjpSREY+IDwveDp4bXBtZXRhPiA8P3hwYWNrZXQgZW5kPSJyIj8+FYrpWAAABrNJREFUeNrkW2lsVFUUvjMWirYUkS5BXApUa2vd6gL+wAWjoP5RiW2EUBajAiqSuPADQ0w1UUQTrcFAUUSJEKriEuMWFKuJIElFSS24YNpQK6WoBbuAktbva880M8O8vnfevJm+CSf5cme599xzvnfffffce17AJFjycnLzUVwDXAgUAucBY4BMIEOqdQIdwJ/Az4J64OvWtoONibQvkACHgyiuBe4CbgLOjVNlE/AZsAmoBSE9viQAjueieBCYC5yVoAvWDKwHqkBEmy8IgON09lHgXmCESY4cBaqBlSCieUgIgOPDUCwBngBOM0MjXdL/CyDiv6QRAOcvR7EBKDL+kD3AbJBQl1AC4DjrLwaeBYYbf8m/ciu+BCJ6PScAzp+K4nXgTuNveQuYAxK6PSMAzo9C8TFwtUkN2Q7cDBIOx02AOP8FUGpSSzgf3GBHQsDGec7unwOTTWrKDiGhS02ATHjvALeb1JZ3gRlWE+MpVq0yMzIekRk/1YWP6o7Ors5vHI8AXH1Odl8BaTbKrwd4j10MTAduS8JqkKvA94BPgN0A56htNm2OMyDDKNhuSwCcT5dIrMBG6S4oLI1qezqKBcBjwGiPHW8HVgCr0W97VL/fobjMpv2vQAnaHgv/MdYVXurAeSNPhggRw56BQatRVgL3A0H5+xDwI8Dw9g/5Hlq+clmdDYwF8iV0zpb/GP2tApZHOx4m2xwQUCC+VVqOABg+AUUDkO6AgHkwaL2DJXORxPVNylUnw+gpXObaLXFRlxHoaw7U8uoXQ99vViNgqUPnKQfsKojhdW7GuxDW5JUtIuni432hH4JhLJ7Dq6qwcZiPZnpNXDJPfI0kQEJbjVM5PiIgW3nhlkQQILH9LGWnV/iIAK0ts8TngREwDchVKrnKRwRobckVnwcIKFcq4ONrkY8IWBT2SHUq5eEE3Khs/CRm6Z1+8V5sqVQ26/M5gHuhSJ79TqUFmIhOj/ppwQ8/Rshqb5yiWXFQFhsaWeU352UU0KaXlc2mBI1+Y3OzjyO/Gm2kSAIKFQ2awfQ+v3oP23gL/K5oUhh0GPiEZG8KxP97FHULgsqwtTUFCDioqHsGCRipaHA8BQjQrAcyg4roj5KVAgSMUtRNDyqVj0wBAlQ2koBuRf3xKUBAvqJuN1eCrYpAiHNAltNjpyFYDfL47oix38wdmDA5AvYr+kjzWRgcLVcqnKfsJwGNyk5u9TEBtyjrNwaVgRClTPKA/Db8aVOZslkDG2nD2vEuOkqGlLmYpHcGJLlJu8LjtvJFgx06Jvnq8xC33gUBeUE4waWjduua5wdVPrr6VS6cr6PvoXv5Ixed3g3mH/fB1V9OW1w07fM5IEouUEZR4bIWWJzsTRJ55r8I3ONSRRFs3hsIU8hkgkkulf0CPAx8qElQcuk4beYp9Epgoks138LOvqSPgfyAzIwMZlnFSobgIegc4H3gH6AkxmKDub9Mjb0DeoYDrZ1dne0eO14AvfPx8RXgAYaycahbBvt+GLgFpIM0md3PjqrMTMxpYKxB6p1v+s/n7bbSuMCqldmZyc+fRh9ND+IsAxrmG3C3qtj0J1uP84hLrnwnwJbjEQRIxzw0XB2jER93C9Bog9TjsRgzLpzuJr0BzHV6e8gwf9XoziqdCv1YE/oSTQBHwfem/3w+5syPxuukLtfdO0zk+WIs+YuPKLQ7ohzyWTIix3joPPMTLg1d/Yg5gIL7ogf32U/4WGGhYDr+34J6bUALPpPA62w6XYMOP9BaCv3HoD/PeJubODN6U/eEq4cKTIurttpBAZ4L+87TmKdtOt0ah8FbPXS+WnyLEKskqUy5FaweM5dA2e6w+pNkZuajhfMD3/zYBfDKb3Y6+cWwgytOL7bh98nQ73BEgHReIvd4Roy/a6Cs3CRYJOnq7zjV8HWcybC33mpLLKZIA84FPRYhcSokUNL2Civnjd0MjoZbUCy0+PtNkDDD5wQsFB8sxWm2+GJZd8eSt4HnZXnZ66Nb4CHYYxuxat4XmI1inbHeczskq77DMrK4z8AgK3+Q/L5EEMBn/PzQos0zAsQgvg5XY3TpNKOTSAD3NsrQX63TBqq9PVHM9NgvfXi/06ZSjfNqAoQEHj9Pled+pw8cpw2co6aKbSoJxDlJnYniKdP/sqSVrrEw7IBL/TnG+rSXEy7fYVoG/S1uffDkzVEYypB1qewJRCdb5rp9yxN6mQDZFmOS2wisCIXo8Yin7w7LiKiQEcFYfhOMnBmnzo1CLIO09Qyt47niJxDQ29trTmY56Qn4X4ABAFR7IoDmVT5NAAAAAElFTkSuQmCC;" parent="1" vertex="1">
          <mxGeometry x="193" y="50.5" width="64" height="64" as="geometry" />
        </mxCell>
        <mxCell id="aRfbpxfdnNTo8kCvjEgf-19" value="" style="whiteSpace=wrap;html=1;shape=mxgraph.basic.isocube;isoAngle=15;fillColor=#e1d5e7;strokeColor=#9673a6;" parent="1" vertex="1">
          <mxGeometry x="280" y="240" width="80" height="80" as="geometry" />
        </mxCell>
        <mxCell id="aRfbpxfdnNTo8kCvjEgf-22" value="" style="outlineConnect=0;fontColor=#232F3E;gradientColor=none;fillColor=#232F3E;strokeColor=none;dashed=0;verticalLabelPosition=bottom;verticalAlign=top;align=center;html=1;fontSize=12;fontStyle=0;aspect=fixed;pointerEvents=1;shape=mxgraph.aws4.user;" parent="1" vertex="1">
          <mxGeometry x="545.77" y="53" width="59" height="59" as="geometry" />
        </mxCell>
        <mxCell id="aRfbpxfdnNTo8kCvjEgf-25" value="Web&lt;br&gt;(API)" style="text;html=1;strokeColor=none;fillColor=none;align=center;verticalAlign=middle;whiteSpace=wrap;rounded=0;" parent="1" vertex="1">
          <mxGeometry x="30" y="260" width="50" height="30" as="geometry" />
        </mxCell>
        <mxCell id="aRfbpxfdnNTo8kCvjEgf-26" value="Worker" style="text;html=1;strokeColor=none;fillColor=none;align=center;verticalAlign=middle;whiteSpace=wrap;rounded=0;" parent="1" vertex="1">
          <mxGeometry x="230" y="270" width="50" height="20" as="geometry" />
        </mxCell>
        <mxCell id="aRfbpxfdnNTo8kCvjEgf-28" value="" style="endArrow=classic;html=1;" parent="1" source="aRfbpxfdnNTo8kCvjEgf-22" target="aRfbpxfdnNTo8kCvjEgf-17" edge="1">
          <mxGeometry width="50" height="50" relative="1" as="geometry">
            <mxPoint x="-50" y="100" as="sourcePoint" />
            <mxPoint y="50" as="targetPoint" />
          </mxGeometry>
        </mxCell>
        <mxCell id="aRfbpxfdnNTo8kCvjEgf-29" value="Push" style="text;html=1;strokeColor=none;fillColor=none;align=center;verticalAlign=middle;whiteSpace=wrap;rounded=0;" parent="1" vertex="1">
          <mxGeometry x="390" y="60" width="40" height="20" as="geometry" />
        </mxCell>
        <mxCell id="aRfbpxfdnNTo8kCvjEgf-30" value="" style="endArrow=classic;html=1;exitX=0.5;exitY=1;exitDx=0;exitDy=0;entryX=0.5;entryY=0;entryDx=0;entryDy=0;entryPerimeter=0;" parent="1" source="aRfbpxfdnNTo8kCvjEgf-17" target="aRfbpxfdnNTo8kCvjEgf-3" edge="1">
          <mxGeometry width="50" height="50" relative="1" as="geometry">
            <mxPoint x="180" y="460" as="sourcePoint" />
            <mxPoint x="230" y="410" as="targetPoint" />
          </mxGeometry>
        </mxCell>
        <mxCell id="aRfbpxfdnNTo8kCvjEgf-31" value="" style="endArrow=classic;html=1;exitX=0.5;exitY=1;exitDx=0;exitDy=0;entryX=0.5;entryY=0;entryDx=0;entryDy=0;entryPerimeter=0;" parent="1" source="aRfbpxfdnNTo8kCvjEgf-17" target="aRfbpxfdnNTo8kCvjEgf-19" edge="1">
          <mxGeometry width="50" height="50" relative="1" as="geometry">
            <mxPoint x="230" y="120" as="sourcePoint" />
            <mxPoint x="290" y="190" as="targetPoint" />
          </mxGeometry>
        </mxCell>
        <mxCell id="aRfbpxfdnNTo8kCvjEgf-32" value="Deploy" style="text;html=1;strokeColor=none;fillColor=none;align=center;verticalAlign=middle;whiteSpace=wrap;rounded=0;" parent="1" vertex="1">
          <mxGeometry x="250" y="120" width="40" height="20" as="geometry" />
        </mxCell>
        <mxCell id="aRfbpxfdnNTo8kCvjEgf-33" value="" style="endArrow=classic;html=1;exitX=0.775;exitY=0.875;exitDx=0;exitDy=0;exitPerimeter=0;entryX=0;entryY=0;entryDx=0;entryDy=0;" parent="1" source="aRfbpxfdnNTo8kCvjEgf-3" target="aRfbpxfdnNTo8kCvjEgf-5" edge="1">
          <mxGeometry width="50" height="50" relative="1" as="geometry">
            <mxPoint x="210" y="400" as="sourcePoint" />
            <mxPoint x="260" y="350" as="targetPoint" />
          </mxGeometry>
        </mxCell>
        <mxCell id="aRfbpxfdnNTo8kCvjEgf-34" value="" style="endArrow=classic;html=1;exitX=0.5;exitY=0;exitDx=0;exitDy=0;" parent="1" source="aRfbpxfdnNTo8kCvjEgf-5" target="aRfbpxfdnNTo8kCvjEgf-19" edge="1">
          <mxGeometry width="50" height="50" relative="1" as="geometry">
            <mxPoint x="310" y="420" as="sourcePoint" />
            <mxPoint x="360" y="370" as="targetPoint" />
          </mxGeometry>
        </mxCell>
        <mxCell id="aRfbpxfdnNTo8kCvjEgf-36" value="" style="endArrow=classic;startArrow=classic;html=1;exitX=0.5;exitY=0;exitDx=0;exitDy=0;exitPerimeter=0;" parent="1" source="aRfbpxfdnNTo8kCvjEgf-4" edge="1">
          <mxGeometry width="50" height="50" relative="1" as="geometry">
            <mxPoint x="70" y="370" as="sourcePoint" />
            <mxPoint x="120" y="320" as="targetPoint" />
          </mxGeometry>
        </mxCell>
        <mxCell id="aRfbpxfdnNTo8kCvjEgf-37" value="DB" style="text;html=1;strokeColor=none;fillColor=none;align=center;verticalAlign=middle;whiteSpace=wrap;rounded=0;" parent="1" vertex="1">
          <mxGeometry x="100" y="500" width="40" height="20" as="geometry" />
        </mxCell>
        <mxCell id="aRfbpxfdnNTo8kCvjEgf-40" value="Redis" style="text;html=1;strokeColor=none;fillColor=none;align=center;verticalAlign=middle;whiteSpace=wrap;rounded=0;" parent="1" vertex="1">
          <mxGeometry x="297.5" y="490" width="42.5" height="40" as="geometry" />
        </mxCell>
        <mxCell id="aRfbpxfdnNTo8kCvjEgf-45" value="Developer" style="text;html=1;strokeColor=none;fillColor=none;align=center;verticalAlign=middle;whiteSpace=wrap;rounded=0;" parent="1" vertex="1">
          <mxGeometry x="542.26" y="33" width="70" height="20" as="geometry" />
        </mxCell>
        <mxCell id="aRfbpxfdnNTo8kCvjEgf-47" value="GitHub" style="text;html=1;strokeColor=none;fillColor=none;align=center;verticalAlign=middle;whiteSpace=wrap;rounded=0;" parent="1" vertex="1">
          <mxGeometry x="205" y="30.5" width="40" height="20" as="geometry" />
        </mxCell>
        <mxCell id="aRfbpxfdnNTo8kCvjEgf-48" value="" style="endArrow=classic;html=1;exitX=0;exitY=0;exitDx=0;exitDy=60.79369927359072;exitPerimeter=0;entryX=1;entryY=0.5;entryDx=0;entryDy=0;entryPerimeter=0;" parent="1" source="aRfbpxfdnNTo8kCvjEgf-3" target="aRfbpxfdnNTo8kCvjEgf-6" edge="1">
          <mxGeometry width="50" height="50" relative="1" as="geometry">
            <mxPoint x="-190" y="470" as="sourcePoint" />
            <mxPoint x="-140" y="420" as="targetPoint" />
          </mxGeometry>
        </mxCell>
        <mxCell id="aRfbpxfdnNTo8kCvjEgf-49" value="S3" style="text;html=1;strokeColor=none;fillColor=none;align=center;verticalAlign=middle;whiteSpace=wrap;rounded=0;" parent="1" vertex="1">
          <mxGeometry x="-327.5" y="340" width="40" height="20" as="geometry" />
        </mxCell>
        <mxCell id="aRfbpxfdnNTo8kCvjEgf-50" value="画像" style="text;html=1;strokeColor=none;fillColor=none;align=center;verticalAlign=middle;whiteSpace=wrap;rounded=0;" parent="1" vertex="1">
          <mxGeometry x="-240" y="310" width="40" height="20" as="geometry" />
        </mxCell>
        <mxCell id="aRfbpxfdnNTo8kCvjEgf-52" value="" style="endArrow=classic;html=1;exitX=1;exitY=0.5;exitDx=0;exitDy=0;exitPerimeter=0;" parent="1" source="aRfbpxfdnNTo8kCvjEgf-19" edge="1">
          <mxGeometry width="50" height="50" relative="1" as="geometry">
            <mxPoint x="470" y="360" as="sourcePoint" />
            <mxPoint x="540" y="280" as="targetPoint" />
          </mxGeometry>
        </mxCell>
        <mxCell id="aRfbpxfdnNTo8kCvjEgf-53" value="" style="endArrow=classic;html=1;exitX=1;exitY=0.5;exitDx=0;exitDy=0;entryX=0;entryY=0.5;entryDx=0;entryDy=0;" parent="1" source="aRfbpxfdnNTo8kCvjEgf-20" edge="1">
          <mxGeometry width="50" height="50" relative="1" as="geometry">
            <mxPoint x="490" y="420" as="sourcePoint" />
            <mxPoint x="540" y="360" as="targetPoint" />
          </mxGeometry>
        </mxCell>
        <mxCell id="aRfbpxfdnNTo8kCvjEgf-54" value="メール" style="text;html=1;strokeColor=none;fillColor=none;align=center;verticalAlign=middle;whiteSpace=wrap;rounded=0;" parent="1" vertex="1">
          <mxGeometry x="455" y="250" width="40" height="30" as="geometry" />
        </mxCell>
        <mxCell id="aRfbpxfdnNTo8kCvjEgf-56" value="各種通知" style="text;html=1;strokeColor=none;fillColor=none;align=center;verticalAlign=middle;whiteSpace=wrap;rounded=0;" parent="1" vertex="1">
          <mxGeometry x="440" y="370" width="70" height="20" as="geometry" />
        </mxCell>
        <mxCell id="aRfbpxfdnNTo8kCvjEgf-57" style="edgeStyle=orthogonalEdgeStyle;rounded=0;orthogonalLoop=1;jettySize=auto;html=1;exitX=0.5;exitY=1;exitDx=0;exitDy=0;" parent="1" source="aRfbpxfdnNTo8kCvjEgf-54" target="aRfbpxfdnNTo8kCvjEgf-54" edge="1">
          <mxGeometry relative="1" as="geometry" />
        </mxCell>
        <mxCell id="aRfbpxfdnNTo8kCvjEgf-59" value="" style="whiteSpace=wrap;html=1;shape=mxgraph.basic.isocube;isoAngle=15;fillColor=#e1d5e7;strokeColor=#9673a6;" parent="1" vertex="1">
          <mxGeometry x="-90" y="420" width="80" height="80" as="geometry" />
        </mxCell>
        <mxCell id="aRfbpxfdnNTo8kCvjEgf-60" value="" style="endArrow=classic;startArrow=classic;html=1;entryX=0.238;entryY=0.875;entryDx=0;entryDy=0;entryPerimeter=0;exitX=0.713;exitY=0.075;exitDx=0;exitDy=0;exitPerimeter=0;" parent="1" source="aRfbpxfdnNTo8kCvjEgf-59" target="aRfbpxfdnNTo8kCvjEgf-3" edge="1">
          <mxGeometry width="50" height="50" relative="1" as="geometry">
            <mxPoint x="-10" y="410" as="sourcePoint" />
            <mxPoint x="40" y="360" as="targetPoint" />
          </mxGeometry>
        </mxCell>
        <mxCell id="aRfbpxfdnNTo8kCvjEgf-61" value="Front&lt;br&gt;SPAdmin" style="text;html=1;strokeColor=none;fillColor=none;align=center;verticalAlign=middle;whiteSpace=wrap;rounded=0;" parent="1" vertex="1">
          <mxGeometry x="-80" y="500" width="60" height="40" as="geometry" />
        </mxCell>
        <mxCell id="aRfbpxfdnNTo8kCvjEgf-62" value="" style="endArrow=classic;startArrow=classic;html=1;entryX=0.25;entryY=0.863;entryDx=0;entryDy=0;entryPerimeter=0;exitX=0.855;exitY=0;exitDx=0;exitDy=4.35;exitPerimeter=0;" parent="1" source="aRfbpxfdnNTo8kCvjEgf-4" target="aRfbpxfdnNTo8kCvjEgf-19" edge="1">
          <mxGeometry width="50" height="50" relative="1" as="geometry">
            <mxPoint x="180" y="390" as="sourcePoint" />
            <mxPoint x="230" y="340" as="targetPoint" />
          </mxGeometry>
        </mxCell>
        <mxCell id="aRfbpxfdnNTo8kCvjEgf-65" value="Task" style="text;html=1;strokeColor=none;fillColor=none;align=center;verticalAlign=middle;whiteSpace=wrap;rounded=0;" parent="1" vertex="1">
          <mxGeometry x="250" y="385" width="40" height="20" as="geometry" />
        </mxCell>
        <mxCell id="aRfbpxfdnNTo8kCvjEgf-66" value="Task" style="text;html=1;strokeColor=none;fillColor=none;align=center;verticalAlign=middle;whiteSpace=wrap;rounded=0;" parent="1" vertex="1">
          <mxGeometry x="320" y="335" width="50" height="20" as="geometry" />
        </mxCell>
        <mxCell id="aRfbpxfdnNTo8kCvjEgf-67" value="" style="shape=image;verticalLabelPosition=bottom;labelBackgroundColor=#ffffff;verticalAlign=top;aspect=fixed;imageAspect=0;image=data:image/png,iVBORw0KGgoAAAANSUhEUgAAAwMAAALUCAYAAABXbu4AAAAACXBIWXMAAC4jAAAuIwF4pT92AAAAGXRFWHRTb2Z0d2FyZQBBZG9iZSBJbWFnZVJlYWR5ccllPAAADVVJREFUeNrs2j1KA1EYhtGZcTJRjAyJEDVFEGstBTdha2MnwT5LcAGCWxC3YGHpBqy00zJgoyFFNP7EjLgHIXMn5yzh5ePCAzcuiiICAAAWTywGAABADAAAAGIAAAAQAwAAgBgAAADEAAAAIAYAAAAxAAAAiAEAAEAMAAAAYgAAABADAACAGAAAAMQAAAAgBgAAADEAAACIAQAAQAwAAABiAAAAEAMAAIAYAAAAxAAAACAGAAAAMQAAAGIAAAAQAwAAgBgAAADEAAAAIAYAAAAxAAAAiAEAAEAMAAAAYgAAABADAACAGAAAAMQAAAAgBgAAADEAAACIAQAAQAwAAABiAAAAEAMAAIAYAAAAxAAAACAGAAAAMQAAAIgBAAAQA2IAAADEAAAAIAYAAAAxAAAAiAEAAEAMAAAAYgAAABADAACAGAAAAMQAAAAgBgAAADEAAACIAQAAQAwAAABiAAAAEAMAAIAYAAAAxAAAACAGAAAAMQAAAIgBAABADAAAAGIAAAAQAwAAIAYAAAAxAAAAiAEAAEAMAAAAYgAAABADAACAGAAAAMQAAAAgBgAAADEAAACIAQAAQAwAAABiAAAAEAMAAIAYAAAAxAAAACAGAAAAMQAAAIgBAABADAAAAGIAAAAQAwAAgBgAAAAxIAYAAEAMAJTM0d3rrRUI1WQ8W+68JB+WIFSNLH46P2z1LCEGAObzSF0PPFIEqz6OovVHJ0y49ray0U1vo2mJ6kpMAAAAYgAAABADAACAGAAAAMQAAAAgBgAAADEAAACIAQAAQAwAAABiAAAAEAMAAIAYAAAAxAAAACAGAAAAMQAAAIgBAABADAAAAGIAAAAQAwAAgBgAAADEAAAAIAYAAAAxAAAAiAEAABADAACAGAAAAMQAAAAgBgAAADEAAACIAQAAQAwAAABiAAAAEAMAAIAYAAAAxAAAACAGAAAAMQAAAIgBAABADAAAAGIAAAAQAwAAgBgAAADEAAAAIAYAAAAxAAAAiAEAAEAMAACAGAAAAMQAAAAgBgAAADEAAACIAQAAQAwAAABiAAAAEAMAAIAYAAAAxAAAACAGAAAAMQAAAIgBAABADAAAAGIAAAAQAwAAgBgAAADEAAAAIAYAAAAxAAAAiAEAAEAMAAAAYgAAABADAAAgBgAAADEAAACIAQAAQAwAAABiAAAAEAMAAIAYAAAAxAAAACAGAAAAMQAAAIgBAABADAAAAGIAAAAQAwAAgBgAAADEAAAAIAYAAAAxAAAAiAEAAEAMAAAAYgAAABADAACAGAAAADEAAACIAQAAQAwAAABiAAAAEAMAAIAYAAAAxAAAACAGAAAAMQAAAIgBAABADAAAAGIAAAAQAwAAgBgAAADEAAAAIAYAAAAxAAAAiAEAAEAMAAAAYgAAABADAACAGAAAAMQAAAAgBgAAQAwAAABiAAAAEAMAAIAYAAAAxAAAACAGAAAAMQAAAIgBAABADAAAAGIAAAAQAwAAgBgAAADEAAAAIAYAAAAxAAAAiAEAAEAMAAAAYgAAABADAACAGAAAAMQAAAAgBgAAADEAAABiAAAAEAMAAIAYAAAAxAAAACAGAAAAMQAAAIgBAABADAAAAGIAAAAQAwAAgBgAAADEAAAAIAYAAAAxAAAAiAEAAEAMAAAAYgAAABADAACAGAAAAMQAAAAgBgAAADEAAACIAQAAQAwAAIAYAAAAxAAAACAGAAAAMQAAAIgBAABADAAAAGIAAAAQAwAAgBgAAADEAAAAUB6pCartavB+bwWCNvq0AcGaTuOotbNiCMK94UZcWEEMELDJrNi1AkH7/rEBwfq73ofcDROuLE9iK1Sbb0IAACAGAAAAMQAAAIgBAABADAAAAGIAAAAQAwAAgBgAAADEAAAAIAYAAAAxAAAAiAEAAEAMAAAAYgAAABADAACAGAAAAMQAAAAgBgAAADEAAACIAQAAQAwAAABiAAAAEAMAAIAYAAAAMQAAAIgBAABADAAAAGIAAAAQAwAAgBgAAADEAAAAIAYAAAAxAAAAiAEAAEAMAAAAYgAAABADAACAGAAAAMQAAAAgBgAAADEAAACIAQAAQAwAAABiAAAAEAMAAIAYAAAAxAAAAIgBEwAAgBgAAADEAAAAIAYAAAAxAAAAiAEAAEAMAAAAYgAAABADAACAGAAAAMQAAAAgBgAAADEAAACIAQAAQAwAAABiAAAAEAMAAIAYAAAAxAAAACAGAAAAMQAAAIgBAABADAAAAGIAAADEAAAAIAYAAAAxAAAAiAEAAEAMAAAAYgAAABADAACAGAAAAMQAAAAgBgAAADEAAACIAQAAQAwAAABiAAAAEAMAAIAYAAAAxAAAACAGAAAAMQAAAIgBAABADAAAAGIAAAAQAwAAIAYAAAAxAAAAiAEAAEAMAAAAYgAAABADAACAGAAAAMQAAAAgBgAAADEAAACIAQAAQAwAAABiAAAAEAMAAIAYAAAAxAAAACAGAAAAMQAAAIgBAABADAAAAGIAAAAQAwAAgBgAAADEAAAAiAEAAEAMAAAAYgAAABADAACAGAAAAMQAAAAgBgAAADEAAACIAQAAQAwAAABiAAAAEAMAAIAYAAAAxAAAACAGAAAAMQAAAIgBAABADAAAAGIAAAAQAwAAgBgAAADEAAAAIAYAAEAMAAAAYgAAABADAACAGAAAAMQAAAAgBgAAADEAAACIAQAAQAwAAABiAAAAEAMAAIAYAAAAxAAAACAGAAAAMQAAAIgBAABADAAAAGIAAAAQAwAAgBgAAADEAAAAIAYAAAAxAAAAiAEAABADAACAGAAAAMQAAAAgBgAAADEAAACIAQAAQAwAAABiAAAAEAMAAIAYAAAASiQ1QbWdXQ6NQNCOD/Jos10zBMH6Wkr6ViBUtSR+toIYAJibbl6PtptigHCddlcvrACUlW9CAAAgBgAAADEAAACIAQAAQAwAAABiAAAAEAMAAIAYAAAAxAAAACAGAAAAMQAAAIgBAABADAAAAGIAAAAQAwAAgBgAAADEAAAAIAYAAAAxAAAAiAEAAEAMAAAAYgAAABADAACAGAAAADEAAACIAQAAQAwAAABiAAAAEAMAAIAYAAAAxAAAACAGAAAAMQAAAIgBAABADAAAAGIAAAAQAwAAgBgAAADEAAAAIAYAAAAxAAAAiAEAAEAMAAAAYgAAABADAACAGAAAAMQAAACIARMAAIAYAAAAxAAAACAGAAAAMQAAAIgBAABADAAAAGIAAAAQAwAAgBgAAADEAAAAIAYAAAAxAAAAiAEAAEAMAAAAYgAAABADAACAGAAAAMQAAAAgBgAAADEAAACIAQAAQAwAAABiAAAAxAAAACAGAAAAMQAAAIgBAABADAAAAGIAAAAQAwAAgBgAAADEAAAAIAYAAAAxAAAAiAEAAEAMAAAAYgAAABADAACAGAAAAMQAAAAgBgAAADEAAACIAQAAQAwAAABiAAAAEAMAACAGAAAAMQAAAIgBAABADAAAAGIAAAAQAwAAgBgAAADEAAAAIAYAAAAxAAAAiAEAAEAMAAAAYgAAABADAACAGAAAAMQAAAAgBgAAADEAAACIAQAAQAwAAABiAAAAEAMAAIAYAAAAxAAAAIgBAABADAAAAGIAAAAQAwAAgBgAAADEAAAAIAYAAAAxAAAAiAEAAEAMAAAAYgAAABADAACAGAAAAMQAAAAgBgAAADEAAACIAQAAQAwAAABiAAAAEAMAAIAYAAAAxAAAACAGAABADAAAAGIAAAAQAwAAgBgAAADEAAAAIAYAAAAxAAAAiAEAAEAMAAAAYgAAABADAACAGAAAAMQAAAAgBgAAADEAAACIAQAAQAwAAABiAAAAEAMAAIAYAAAAxAAAACAGAAAAMQAAAIgBAAAQAwAAgBgAAADEAAAAIAYAAAAxAAAAiAEAAEAMAAAAYgAAABADAACAGAAAAEokNUG1new3+lYgZJ21dNjOkjdLAMD/i4uisAIAAIgBAABADAAAAGIAAAAQAwAAgBgAAADEAAAAIAYAAAAxAAAAiAEAAEAMAAAAYgAAABADAACAGAAAAMQAAAAgBgAAADEAAACIAQAAQAwAAABiAAAAEAMAAIAYAAAAxAAAACAGAABADAAAAGIAAAAQAwAAgBgAAADEAAAAIAYAAAAxAAAAiAEAAEAMAAAAYgAAABADAACAGAAAAMQAAAAgBgAAADEAAACIAQAAQAwAAABiAAAAEAMAAIAYAAAAxAAAACAGAAAAMQAAAGIAAAAQAwAAgBgAAADEAAAAIAYAAAAxAAAAiAEAAEAMAAAAYgAAABADAACAGAAAAMQAAAAgBgAAADEAAACIAQAAQAwAAABiAAAAEAMAAIAYAAAAxAAAACAGAAAAMQAAAIgBAABADAAAgBgAAADEAAAAIAYAAAAxAAAAiAEAAEAMAAAAYgAAABADAACAGAAAAMQAAAAgBgAAADEAAACIAQAAQAwAAABiAAAAEAMAAIAYAAAAxAAAACAGAAAAMQAAAIgBAABADAAAAGIAAADEAAAAIAYAAIDF8CvAAMFidlooj4QrAAAAAElFTkSuQmCC;" parent="1" vertex="1">
          <mxGeometry x="540" y="245" width="74.54" height="70" as="geometry" />
        </mxCell>
        <mxCell id="aRfbpxfdnNTo8kCvjEgf-68" value="" style="shape=image;verticalLabelPosition=bottom;labelBackgroundColor=#ffffff;verticalAlign=top;aspect=fixed;imageAspect=0;image=data:image/svg+xml,PHN2ZyB4bWxucz0iaHR0cDovL3d3dy53My5vcmcvMjAwMC9zdmciIGVuYWJsZS1iYWNrZ3JvdW5kPSJuZXcgMCAwIDI0NDcuNiAyNDUyLjUiIHZpZXdCb3g9IjAgMCAyNDQ3LjYgMjQ1Mi41Ij48ZyBjbGlwLXJ1bGU9ImV2ZW5vZGQiIGZpbGwtcnVsZT0iZXZlbm9kZCI+PHBhdGggZD0ibTg5Ny40IDBjLTEzNS4zLjEtMjQ0LjggMTA5LjktMjQ0LjcgMjQ1LjItLjEgMTM1LjMgMTA5LjUgMjQ1LjEgMjQ0LjggMjQ1LjJoMjQ0Ljh2LTI0NS4xYy4xLTEzNS4zLTEwOS41LTI0NS4xLTI0NC45LTI0NS4zLjEgMCAuMSAwIDAgMG0wIDY1NGgtNjUyLjZjLTEzNS4zLjEtMjQ0LjkgMTA5LjktMjQ0LjggMjQ1LjItLjIgMTM1LjMgMTA5LjQgMjQ1LjEgMjQ0LjcgMjQ1LjNoNjUyLjdjMTM1LjMtLjEgMjQ0LjktMTA5LjkgMjQ0LjgtMjQ1LjIuMS0xMzUuNC0xMDkuNS0yNDUuMi0yNDQuOC0yNDUuM3oiIGZpbGw9IiMzNmM1ZjAiLz48cGF0aCBkPSJtMjQ0Ny42IDg5OS4yYy4xLTEzNS4zLTEwOS41LTI0NS4xLTI0NC44LTI0NS4yLTEzNS4zLjEtMjQ0LjkgMTA5LjktMjQ0LjggMjQ1LjJ2MjQ1LjNoMjQ0LjhjMTM1LjMtLjEgMjQ0LjktMTA5LjkgMjQ0LjgtMjQ1LjN6bS02NTIuNyAwdi02NTRjLjEtMTM1LjItMTA5LjQtMjQ1LTI0NC43LTI0NS4yLTEzNS4zLjEtMjQ0LjkgMTA5LjktMjQ0LjggMjQ1LjJ2NjU0Yy0uMiAxMzUuMyAxMDkuNCAyNDUuMSAyNDQuNyAyNDUuMyAxMzUuMy0uMSAyNDQuOS0xMDkuOSAyNDQuOC0yNDUuM3oiIGZpbGw9IiMyZWI2N2QiLz48cGF0aCBkPSJtMTU1MC4xIDI0NTIuNWMxMzUuMy0uMSAyNDQuOS0xMDkuOSAyNDQuOC0yNDUuMi4xLTEzNS4zLTEwOS41LTI0NS4xLTI0NC44LTI0NS4yaC0yNDQuOHYyNDUuMmMtLjEgMTM1LjIgMTA5LjUgMjQ1IDI0NC44IDI0NS4yem0wLTY1NC4xaDY1Mi43YzEzNS4zLS4xIDI0NC45LTEwOS45IDI0NC44LTI0NS4yLjItMTM1LjMtMTA5LjQtMjQ1LjEtMjQ0LjctMjQ1LjNoLTY1Mi43Yy0xMzUuMy4xLTI0NC45IDEwOS45LTI0NC44IDI0NS4yLS4xIDEzNS40IDEwOS40IDI0NS4yIDI0NC43IDI0NS4zeiIgZmlsbD0iI2VjYjIyZSIvPjxwYXRoIGQ9Im0wIDE1NTMuMmMtLjEgMTM1LjMgMTA5LjUgMjQ1LjEgMjQ0LjggMjQ1LjIgMTM1LjMtLjEgMjQ0LjktMTA5LjkgMjQ0LjgtMjQ1LjJ2LTI0NS4yaC0yNDQuOGMtMTM1LjMuMS0yNDQuOSAxMDkuOS0yNDQuOCAyNDUuMnptNjUyLjcgMHY2NTRjLS4yIDEzNS4zIDEwOS40IDI0NS4xIDI0NC43IDI0NS4zIDEzNS4zLS4xIDI0NC45LTEwOS45IDI0NC44LTI0NS4ydi02NTMuOWMuMi0xMzUuMy0xMDkuNC0yNDUuMS0yNDQuNy0yNDUuMy0xMzUuNCAwLTI0NC45IDEwOS44LTI0NC44IDI0NS4xIDAgMCAwIC4xIDAgMCIgZmlsbD0iI2UwMWU1YSIvPjwvZz48L3N2Zz4=;" parent="1" vertex="1">
          <mxGeometry x="547.3199999999999" y="330" width="59.89" height="60" as="geometry" />
        </mxCell>
        <mxCell id="aRfbpxfdnNTo8kCvjEgf-69" value="SendGrid" style="text;html=1;strokeColor=none;fillColor=none;align=center;verticalAlign=middle;whiteSpace=wrap;rounded=0;" parent="1" vertex="1">
          <mxGeometry x="545.77" y="220" width="63" height="30" as="geometry" />
        </mxCell>
        <mxCell id="aRfbpxfdnNTo8kCvjEgf-70" value="Slack" style="text;html=1;strokeColor=none;fillColor=none;align=center;verticalAlign=middle;whiteSpace=wrap;rounded=0;" parent="1" vertex="1">
          <mxGeometry x="555.89" y="395" width="42.74" height="25" as="geometry" />
        </mxCell>
        <mxCell id="aRfbpxfdnNTo8kCvjEgf-72" value="" style="rounded=0;whiteSpace=wrap;html=1;" parent="1" vertex="1">
          <mxGeometry x="-120" y="590" width="550" height="200" as="geometry" />
        </mxCell>
        <mxCell id="aRfbpxfdnNTo8kCvjEgf-71" value="" style="shape=image;verticalLabelPosition=bottom;labelBackgroundColor=#ffffff;verticalAlign=top;aspect=fixed;imageAspect=0;image=data:image/svg+xml,PHN2ZyB4bWxucz0iaHR0cDovL3d3dy53My5vcmcvMjAwMC9zdmciIHdpZHRoPSIyNTAwIiBoZWlnaHQ9IjE3NTAiIHZpZXdCb3g9IjAuNSAwLjUgOTk5IDY5OS4yNDIiPjxwYXRoIGZpbGw9IiMwMEExRTAiIGQ9Ik00MTYuMjI0IDc2Ljc2M2MzMi4yMTktMzMuNTcgNzcuMDc0LTU0LjM5MSAxMjYuNjgyLTU0LjM5MSA2NS45NDYgMCAxMjMuNDggMzYuNzcyIDE1NC4xMiA5MS4zNjEgMjYuNjI2LTExLjg5NiA1Ni4wOTgtMTguNTE0IDg3LjEwNi0xOC41MTQgMTE4Ljk0IDAgMjE1LjM2OCA5Ny4yNjggMjE1LjM2OCAyMTcuMjQ3IDAgMTE5Ljk5My05Ni40MjggMjE3LjI2MS0yMTUuMzY4IDIxNy4yNjFhMjEzLjczNSAyMTMuNzM1IDAgMCAxLTQyLjQyMi00LjIyN2MtMjYuOTgxIDQ4LjEyOC03OC4zOTcgODAuNjQ2LTEzNy40MTIgODAuNjQ2LTI0LjcwNSAwLTQ4LjA3Mi01LjcwNi02OC44NzctMTUuODUzLTI3LjM1MiA2NC4zMzctOTEuMDc3IDEwOS40NDgtMTY1LjM0OCAxMDkuNDQ4LTc3LjM0NCAwLTE0My4yNjEtNDguOTM5LTE2OC41NjMtMTE3LjU3NC0xMS4wNTcgMi4zNDgtMjIuNTEzIDMuNTcyLTM0LjI2OCAzLjU3MkM3NS4xNTUgNTg1Ljc0LjUgNTEwLjMxNy41IDQxNy4yNjJjMC02Mi4zNTkgMzMuNTQyLTExNi44MDcgODMuMzc4LTE0NS45MzctMTAuMjYtMjMuNjA4LTE1Ljk2Ny00OS42NjUtMTUuOTY3LTc3LjA2QzY3LjkxMSA4Ny4yNSAxNTQuNzkuNSAyNjEuOTQ4LjVjNjIuOTE0IDAgMTE4LjgyNyAyOS45MTMgMTU0LjI3NiA3Ni4yNjMiLz48cGF0aCBmaWxsPSIjRkZGIiBkPSJNMTQ1LjE5NiAzNjMuMTFjLS42MjYgMS42MzcuMjI4IDEuOTc5LjQyNyAyLjI2MyAxLjg3OCAxLjM2NiAzLjc4NiAyLjM0OSA1LjcwNyAzLjQ0NCAxMC4xODkgNS40MDcgMTkuODEgNi45ODYgMjkuODcxIDYuOTg2IDIwLjQ5MiAwIDMzLjIxNC0xMC45IDMzLjIxNC0yOC40NDd2LS4zNDFjMC0xNi4yMjQtMTQuMzU4LTIyLjExNS0yNy44MzUtMjYuMzdsLTEuNzUtLjU2OWMtMTAuMTYxLTMuMzAyLTE4LjkyNy02LjE0Ny0xOC45MjctMTIuODM2di0uMzU1YzAtNS43MjEgNS4xMjMtOS45MzQgMTMuMDY0LTkuOTM0IDguODIzIDAgMTkuMjk3IDIuOTMyIDI2LjA0MiA2LjY2IDAgMCAxLjk3OCAxLjI4MSAyLjcwNC0uNjQuMzk4LTEuMDI1IDMuODE0LTEwLjIxOCA0LjE3LTExLjIxNC4zODQtMS4wODItLjI5OS0xLjg3OS0uOTk2LTIuMzA2LTcuNjk5LTQuNjgyLTE4LjM0NC03Ljg4NC0yOS4zNTgtNy44ODRsLTIuMDQ5LjAxNGMtMTguNzU2IDAtMzEuODQ4IDExLjMyOC0zMS44NDggMjcuNTY1di4zNDJjMCAxNy4xMTkgMTQuNDQ0IDIyLjY2OSAyNy45NzggMjYuNTRsMi4xNzcuNjY5YzkuODYyIDMuMDMxIDE4LjM1OCA1LjYzNSAxOC4zNTggMTIuNTh2LjM0MmMwIDYuMzQ3LTUuNTIxIDExLjA3MS0xNC40MyAxMS4wNzEtMy40NTggMC0xNC40ODctLjA3MS0yNi4zOTgtNy42LTEuNDM4LS44NC0yLjI3Ny0xLjQ1MS0zLjM4Ny0yLjEyLS41ODMtLjM3LTIuMDQ5LTEuMDExLTIuNjg5LjkyNWwtNC4wNDUgMTEuMjE1ek00NDUuMTk0IDM2My4xMWMtLjYyNiAxLjYzNy4yMjggMS45NzkuNDI3IDIuMjYzIDEuODc4IDEuMzY2IDMuNzg2IDIuMzQ5IDUuNzA2IDMuNDQ0IDEwLjE4OSA1LjQwNyAxOS44MTEgNi45ODYgMjkuODcxIDYuOTg2IDIwLjQ5MiAwIDMzLjIxNS0xMC45IDMzLjIxNS0yOC40NDd2LS4zNDFjMC0xNi4yMjQtMTQuMzU5LTIyLjExNS0yNy44MzYtMjYuMzdsLTEuNzUtLjU2OWMtMTAuMTYxLTMuMzAyLTE4LjkyOC02LjE0Ny0xOC45MjgtMTIuODM2di0uMzU1YzAtNS43MjEgNS4xMjMtOS45MzQgMTMuMDY0LTkuOTM0IDguODIzIDAgMTkuMjk3IDIuOTMyIDI2LjA0MyA2LjY2IDAgMCAxLjk3OCAxLjI4MSAyLjcwMy0uNjQuMzk4LTEuMDI1IDMuODE0LTEwLjIxOCA0LjE3LTExLjIxNC4zODUtMS4wODItLjI5OS0xLjg3OS0uOTk2LTIuMzA2LTcuNjk5LTQuNjgyLTE4LjM0NC03Ljg4NC0yOS4zNTgtNy44ODRsLTIuMDUuMDE0Yy0xOC43NTYgMC0zMS44NDggMTEuMzI4LTMxLjg0OCAyNy41NjV2LjM0MmMwIDE3LjExOSAxNC40NDQgMjIuNjY5IDI3Ljk3OCAyNi41NGwyLjE3Ny42NjljOS44NjIgMy4wMzEgMTguMzczIDUuNjM1IDE4LjM3MyAxMi41OHYuMzQyYzAgNi4zNDctNS41MzYgMTEuMDcxLTE0LjQ0NSAxMS4wNzEtMy40NTcgMC0xNC40ODYtLjA3MS0yNi4zOTctNy42LTEuNDM4LS44NC0yLjI5MS0xLjQyMy0zLjM3Mi0yLjEyLS4zNzEtLjI0Mi0yLjEwNy0uOTExLTIuNzA1LjkyNWwtNC4wNDIgMTEuMjE1ek02NDkuOTk1IDMyOC43NGMwIDkuOTE5LTEuODUgMTcuNzMxLTUuNDkzIDIzLjI1My0zLjYwMSA1LjQ2NS05LjA1MSA4LjEyNi0xNi42NDkgOC4xMjYtNy42MTMgMC0xMy4wMzUtMi42NDctMTYuNTc5LTguMTI2LTMuNTg3LTUuNTA3LTUuNDA3LTEzLjMzNC01LjQwNy0yMy4yNTMgMC05LjkwNCAxLjgyLTE3LjcwMyA1LjQwNy0yMy4xNjggMy41NDQtNS40MDcgOC45NjYtOC4wNCAxNi41NzktOC4wNCA3LjU5OSAwIDEzLjA0OSAyLjYzMyAxNi42NjQgOC4wNCAzLjYyOSA1LjQ2NCA1LjQ3OCAxMy4yNjMgNS40NzggMjMuMTY4bTE3LjEwNi0xOC4zODZjLTEuNjgtNS42NzktNC4yOTgtMTAuNjg4LTcuNzg0LTE0Ljg1Ny0zLjQ4Ny00LjE4NC03Ljg5OC03LjU0Mi0xMy4xMzYtOS45OS01LjIyMy0yLjQzMy0xMS4zOTgtMy42NzEtMTguMzI4LTMuNjcxLTYuOTQ1IDAtMTMuMTIxIDEuMjM4LTE4LjM0NCAzLjY3MS01LjIzNyAyLjQ0OC05LjY0OCA1LjgwNy0xMy4xNDkgOS45OS0zLjQ3MiA0LjE4NC02LjA5MSA5LjE5My03Ljc4NCAxNC44NTctMS42NjUgNS42NDktMi41MDUgMTEuODI1LTIuNTA1IDE4LjM4NnMuODQgMTIuNzUxIDIuNTA1IDE4LjM4NmMxLjY5MyA1LjY2NCA0LjI5OCAxMC42NzQgNy43OTkgMTQuODU3IDMuNDg2IDQuMTg0IDcuOTEyIDcuNTI4IDEzLjEzNSA5LjkwNCA1LjIzNiAyLjM3NyAxMS4zOTggMy41ODYgMTguMzQ0IDMuNTg2IDYuOTMgMCAxMy4wOTItMS4yMDkgMTguMzI4LTMuNTg2IDUuMjIzLTIuMzc2IDkuNjQ4LTUuNzIxIDEzLjEzNi05LjkwNCAzLjQ4Ni00LjE3IDYuMTA0LTkuMTc5IDcuNzg0LTE0Ljg1NyAxLjY4LTUuNjQ5IDIuNTE5LTExLjg0IDIuNTE5LTE4LjM4NnMtLjg0MS0xMi43MzctMi41Mi0xOC4zODZNODA3LjU2OCAzNTcuNDdjLS41NjktMS42NjUtMi4xNzctMS4wMzktMi4xNzctMS4wMzktMi40OS45NTQtNS4xMzggMS44MzYtNy45NTUgMi4yNzctMi44NjEuNDQtNi4wMDYuNjY5LTkuMzc5LjY2OS04LjI4MSAwLTE0Ljg1Ni0yLjQ2Mi0xOS41NjYtNy4zMjktNC43MjUtNC44NjctNy4zNzItMTIuNzM2LTcuMzQ0LTIzLjM4MS4wMjktOS42OTEgMi4zNjItMTYuOTc4IDYuNTYxLTIyLjUyNyA0LjE3LTUuNTIxIDEwLjUxNy04LjM1NCAxOC45ODQtOC4zNTQgNy4wNTkgMCAxMi40MzguODExIDE4LjA3MiAyLjU5IDAgMCAxLjM1Mi41ODMgMS45OTItMS4xODEgMS40OTQtNC4xNTYgMi42MDQtNy4xMyA0LjE5OC0xMS42OTguNDU2LTEuMjk1LS42NTQtMS44NS0xLjA1My0yLjAwNy0yLjIyLS44NjgtNy40NTctMi4yNzYtMTEuNDEzLTIuODc0LTMuNy0uNTY5LTguMDI2LS44NjgtMTIuODM2LS44NjgtNy4xODggMC0xMy41OTEgMS4yMjQtMTkuMDY5IDMuNjcyLTUuNDY1IDIuNDMzLTEwLjEwNCA1Ljc5MS0xMy43NzUgOS45NzYtMy42NzIgNC4xODQtNi40NjEgOS4xOTItOC4zMjUgMTQuODU2LTEuODUgNS42NDktMi43ODkgMTEuODU0LTIuNzg5IDE4LjQxNSAwIDE0LjE4OCAzLjgyOCAyNS42NTcgMTEuMzg1IDM0LjA1NCA3LjU3IDguNDI1IDE4Ljk0MSAxMi43MDggMzMuNzcgMTIuNzA4IDguNzY2IDAgMTcuNzYtMS43NzggMjQuMjIxLTQuMzI2IDAgMCAxLjIzOC0uNTk4LjY5Ny0yLjAzNGwtNC4xOTktMTEuNTk5ek04MzcuNDk3IDMxOS4yMzhjLjgxMS01LjUwNyAyLjMzNC0xMC4wOSA0LjY4Mi0xMy42NjEgMy41NDQtNS40MjIgOC45NTEtOC4zOTYgMTYuNTUxLTguMzk2czEyLjYyMyAyLjk4OCAxNi4yMjMgOC4zOTZjMi4zOTEgMy41NzEgMy40MyA4LjM1NCAzLjg0MyAxMy42NjFoLTQxLjI5OXptNTcuNTkyLTEyLjExMWMtMS40NTEtNS40NzktNS4wNTItMTEuMDE1LTcuNDE0LTEzLjU0OC0zLjcyOS00LjAxMy03LjM3MS02LjgxNi0xMC45ODYtOC4zODItNC43MjUtMi4wMjEtMTAuMzg5LTMuMzU4LTE2LjU5My0zLjM1OC03LjIyOSAwLTEzLjc5IDEuMjEtMTkuMTEyIDMuNzE0LTUuMzM2IDIuNTA1LTkuODE4IDUuOTIxLTEzLjMzNCAxMC4xNzYtMy41MTYgNC4yNC02LjE2MiA5LjI5Mi03Ljg0MiAxNS4wMjctMS42OTMgNS43MDctMi41NDcgMTEuOTI2LTIuNTQ3IDE4LjQ4NSAwIDYuNjc1Ljg4MyAxMi44OTQgMi42MzMgMTguNDg2IDEuNzY1IDUuNjM2IDQuNTgyIDEwLjYwMiA4LjM5NiAxNC43MTQgMy43OTkgNC4xNDIgOC42OTUgNy4zODcgMTQuNTU4IDkuNjQ4IDUuODIxIDIuMjQ5IDEyLjg5NCAzLjQxNiAyMS4wMTkgMy40MDEgMTYuNzIyLS4wNTcgMjUuNTMtMy43ODUgMjkuMTU5LTUuNzkyLjY0MS0uMzU1IDEuMjUzLS45ODEuNDgzLTIuNzc0bC0zLjc4NS0xMC42MDNjLS41NjgtMS41NzktMi4xNzctLjk5Ni0yLjE3Ny0uOTk2LTQuMTQyIDEuNTM3LTEwLjAzMiA0LjI5OC0yMy43NjYgNC4yNy04Ljk3OS0uMDE0LTE1LjY0LTIuNjYxLTE5LjgxLTYuODAzLTQuMjgzLTQuMjQtNi4zNzUtMTAuNDc0LTYuNzQ1LTE5LjI2OGw1Ny45MDUuMDU3czEuNTIyLS4wMjggMS42OC0xLjUwOWMuMDU3LS42MjQgMS45OTMtMTEuODk1LTEuNzIyLTI0Ljk0NU0zNzMuNzYyIDMxOS4yMzhjLjgyNS01LjUwNyAyLjMzNC0xMC4wOSA0LjY4Mi0xMy42NjEgMy41NDMtNS40MjIgOC45NTEtOC4zOTYgMTYuNTUtOC4zOTZzMTIuNjIzIDIuOTg4IDE2LjIzNyA4LjM5NmMyLjM3NiAzLjU3MSAzLjQxNSA4LjM1NCAzLjgyOCAxMy42NjFoLTQxLjI5N3ptNTcuNTc3LTEyLjExMWMtMS40NTEtNS40NzktNS4wMzctMTEuMDE1LTcuMzk5LTEzLjU0OC0zLjcyOS00LjAxMy03LjM3Mi02LjgxNi0xMC45ODYtOC4zODItNC43MjUtMi4wMjEtMTAuMzg4LTMuMzU4LTE2LjU5My0zLjM1OC03LjIxNSAwLTEzLjc5IDEuMjEtMTkuMTEyIDMuNzE0LTUuMzM2IDIuNTA1LTkuODE5IDUuOTIxLTEzLjMzNCAxMC4xNzYtMy41MTUgNC4yNC02LjE2MiA5LjI5Mi03Ljg0MSAxNS4wMjctMS42NzkgNS43MDctMi41NDcgMTEuOTI2LTIuNTQ3IDE4LjQ4NSAwIDYuNjc1Ljg4MiAxMi44OTQgMi42MzMgMTguNDg2IDEuNzY1IDUuNjM2IDQuNTgzIDEwLjYwMiA4LjM5NiAxNC43MTQgMy44IDQuMTQyIDguNjk1IDcuMzg3IDE0LjU1OCA5LjY0OCA1LjgyMSAyLjI0OSAxMi44OTMgMy40MTYgMjEuMDE5IDMuNDAxIDE2LjcyMS0uMDU3IDI1LjUzLTMuNzg1IDI5LjE1OS01Ljc5Mi42NDEtLjM1NSAxLjI1Mi0uOTgxLjQ4NC0yLjc3NGwtMy43NzEtMTAuNjAzYy0uNTg0LTEuNTc5LTIuMTkxLS45OTYtMi4xOTEtLjk5Ni00LjE0MSAxLjUzNy0xMC4wMTkgNC4yOTgtMjMuNzggNC4yNy04Ljk2NS0uMDE0LTE1LjYyNS0yLjY2MS0xOS43OTUtNi44MDMtNC4yODQtNC4yNC02LjM3NS0xMC40NzQtNi43NDYtMTkuMjY4bDU3LjkwNS4wNTdzMS41MjItLjAyOCAxLjY3OS0xLjUwOWMuMDU1LS42MjQgMS45OS0xMS44OTUtMS43MzgtMjQuOTQ1TTI0OC42MDEgMzU3LjE1M2MtMi4yNjMtMS44MDgtMi41NzYtMi4yNjMtMy4zNDQtMy40My0xLjEzOS0xLjc3OS0xLjcyMi00LjMxMi0xLjcyMi03LjUyOCAwLTUuMDk1IDEuNjc5LTguNzUyIDUuMTY2LTExLjIxNC0uMDQyLjAxNSA0Ljk4MS00LjM0IDE2Ljc5Mi00LjE4NCA4LjI5Ni4xMTQgMTUuNzEgMS4zMzggMTUuNzEgMS4zMzh2MjYuMzI3aC4wMTRzLTcuMzU3IDEuNTc5LTE1LjYzOSAyLjA3N2MtMTEuNzgzLjcxMi0xNy4wMi0zLjQtMTYuOTc3LTMuMzg2bTIzLjAzOS00MC42ODZjLTIuMzQ4LS4xNzEtNS4zOTQtLjI3MS05LjAzNy0uMjcxLTQuOTY2IDAtOS43NjIuNjI2LTE0LjI1OSAxLjgzNi00LjUyNSAxLjIwOS04LjU5NSAzLjEwMy0xMi4wOTYgNS42MDZhMjcuOTI3IDI3LjkyNyAwIDAgMC04LjM5NiA5LjU0OWMtMi4wNDkgMy44MTQtMy4wODggOC4zMTEtMy4wODggMTMuMzQ5IDAgNS4xMjMuODgyIDkuNTc3IDIuNjQ3IDEzLjIyMSAxLjc2NSAzLjY1NyA0LjMxMiA2LjcwMiA3LjU1NiA5LjA1MSAzLjIxNiAyLjM0OCA3LjE4NyA0LjA2OSAxMS43OTcgNS4xMDggNC41NCAxLjAzOSA5LjY5MSAxLjU2NSAxNS4zMjcgMS41NjUgNS45MzQgMCAxMS44NTQtLjQ4MyAxNy41ODktMS40NjYgNS42NzgtLjk2OCAxMi42NTEtMi4zNzcgMTQuNTg2LTIuODE3YTE0Ni4yNSAxNDYuMjUgMCAwIDAgNC4wNTYtMS4wMzljMS40MzgtLjM1NSAxLjMyNC0xLjg5MyAxLjMyNC0xLjg5M2wtLjAyOS01Mi45NTJjMC0xMS42MTMtMy4xMDItMjAuMjIzLTkuMjA3LTI1LjU1OS02LjA3Ny01LjMyMi0xNS4wMjgtOC4wMTMtMjYuNTk3LTguMDEzLTQuMzQxIDAtMTEuMzI4LjU5OS0xNS41MTIgMS40MzggMCAwLTEyLjY1MSAyLjQ0OC0xNy44NiA2LjUxOCAwIDAtMS4xMzguNzEyLS41MTIgMi4zMDZsNC4wOTkgMTEuMDE1Yy41MTIgMS40MjMgMS44OTMuOTM5IDEuODkzLjkzOXMuNDQxLS4xNzEuOTU0LS40N2MxMS4xNDMtNi4wNjIgMjUuMjMxLTUuODc3IDI1LjIzMS01Ljg3NyA2LjI2MiAwIDExLjA3MiAxLjI1MiAxNC4zMTYgMy43NDIgMy4xNTkgMi40MTkgNC43NjcgNi4wNzYgNC43NjcgMTMuNzg5djIuNDQ4Yy00Ljk4MS0uNzExLTkuNTQ5LTEuMTIzLTkuNTQ5LTEuMTIzTTczOC42NjkgMjg2LjYzMWMuNDQtMS4zMS0uNDg0LTEuOTM2LS44NjktMi4wNzgtLjk4MS0uMzg0LTUuOTA1LTEuNDIzLTkuNzA1LTEuNjY1LTcuMjcxLS40NDEtMTEuMzEyLjc4My0xNC45MjggMi40MDUtMy41ODYgMS42MjItNy41NyA0LjI0LTkuNzkxIDcuMjE1di03LjA0NGMwLS45ODItLjY5Ny0xLjc2NS0xLjY2NS0xLjc2NWgtMTQuODQzYy0uOTY3IDAtMS42NjQuNzgyLTEuNjY0IDEuNzY1djg2LjM2NmMwIC45NjguNzk3IDEuNzY1IDEuNzY0IDEuNzY1aDE1LjIxM2ExLjc2IDEuNzYgMCAwIDAgMS43NS0xLjc2NXYtNDMuMTQ3YzAtNS43OTIuNjQxLTExLjU2OSAxLjkyMi0xNS4xOTggMS4yNTItMy41ODcgMi45Ni02LjQ2MSA1LjA2Ni04LjUyNSAyLjEyLTIuMDQ5IDQuNTI1LTMuNDg2IDcuMTU4LTQuMjk3IDIuNjg5LS44MjYgNS42NjMtMS4wOTYgNy43Ny0xLjA5NiAzLjAzMSAwIDYuMzYxLjc4MiA2LjM2MS43ODIgMS4xMDkuMTI4IDEuNzM2LS41NTUgMi4xMDUtMS41NjUuOTk3LTIuNjQ3IDMuODE1LTEwLjU3NCA0LjM1Ni0xMi4xNTMiLz48cGF0aCBmaWxsPSIjRkZGIiBkPSJNNTk1Ljg3NCAyNDYuNjAzYy0xLjg1LS41NjktMy41MjktLjk1NC01LjcyMS0xLjM2Ni0yLjIyMS0uMzk4LTQuODY3LS41OTgtNy44NjktLjU5OC0xMC40NzUgMC0xOC43MjkgMi45Ni0yNC41MiA4Ljc5NC01Ljc2NCA1LjgwNy05LjY3OCAxNC42NDQtMTEuNjQyIDI2LjI3MWwtLjcxMiAzLjkxM2gtMTMuMTQ4cy0xLjU5NC0uMDU3LTEuOTM2IDEuNjhsLTIuMTQ4IDEyLjA1M2MtLjE1NyAxLjEzOS4zNDIgMS44NjQgMS44NzggMS44NjRoMTIuNzk0bC0xMi45NzkgNzIuNDYzYy0xLjAxMSA1LjgzNS0yLjE3OCAxMC42MzEtMy40NzMgMTQuMjczLTEuMjY3IDMuNTg3LTIuNTA0IDYuMjc2LTQuMDQxIDguMjQtMS40OCAxLjg3OS0yLjg3NSAzLjI3My01LjI5NSA0LjA4NC0xLjk5Mi42NjktNC4yOTcuOTgyLTYuODE2Ljk4Mi0xLjM5NSAwLTMuMjU4LS4yMjktNC42MzktLjUxMy0xLjM2Ni0uMjcxLTIuMDkyLS41NjktMy4xMzEtMS4wMTEgMCAwLTEuNDk0LS41NjgtMi4wOTIuOTI2LS40NyAxLjIzOC0zLjg4NSAxMC42MTUtNC4yOTggMTEuNzY5LS4zOTggMS4xNTIuMTcxIDIuMDQ5Ljg5NiAyLjMxOSAxLjcwOC41OTggMi45NzQuOTk2IDUuMjk0IDEuNTUxIDMuMjE3Ljc1NSA1LjkzNC43OTcgOC40ODEuNzk3IDUuMzIyIDAgMTAuMTg5LS43NTQgMTQuMjE3LTIuMjA1IDQuMDQyLTEuNDY2IDcuNTctNC4wMTQgMTAuNzAxLTcuNDU3IDMuMzczLTMuNzI5IDUuNDkzLTcuNjI4IDcuNTE1LTEyLjk2NCAyLjAwNi01LjI2NiAzLjcyOS0xMS44MTIgNS4wOTQtMTkuNDM5bDEzLjA1LTczLjgxNWgxOS4wNjlzMS42MDcuMDU3IDEuOTM2LTEuNjkzbDIuMTYyLTEyLjAzOWMuMTQzLTEuMTUyLS4zNDEtMS44NjQtMS44OTMtMS44NjRoLTE4LjUxNGMuMS0uNDEyLjkzOS02LjkzMSAzLjA2LTEzLjA2My45MTEtMi42MDQgMi42MTgtNC43MjUgNC4wNTYtNi4xNzcgMS40MjQtMS40MjMgMy4wNi0yLjQzMyA0Ljg1NC0zLjAxNyAxLjgzNS0uNTk4IDMuOTI4LS44ODIgNi4yMTktLjg4MiAxLjczNiAwIDMuNDU3LjE5OSA0Ljc1Mi40NjkgMS43OTMuMzg1IDIuNDkuNTg0IDIuOTYxLjcyNyAxLjg5My41NjkgMi4xNDguMDE0IDIuNTE5LS44OTZsNC40MjYtMTIuMTUzYy40NTUtMS4zMTItLjY2OS0xLjg2Ny0xLjA2Ny0yLjAyM00zMzcuMTk0IDM3MS44MzRjMCAuOTY4LS42OTcgMS43NTEtMS42NjUgMS43NTFoLTE1LjM1NWMtLjk2OCAwLTEuNjUxLS43ODMtMS42NTEtMS43NTF2LTEyMy41OGMwLS45NjcuNjgzLTEuNzUgMS42NTEtMS43NWgxNS4zNTVjLjk2OCAwIDEuNjY1Ljc4MyAxLjY2NSAxLjc1djEyMy41OHoiLz48L3N2Zz4=;" parent="1" vertex="1">
          <mxGeometry x="-110" y="570" width="64.29" height="45" as="geometry" />
        </mxCell>
        <mxCell id="aRfbpxfdnNTo8kCvjEgf-4" value="" style="shape=cylinder3;whiteSpace=wrap;html=1;boundedLbl=1;backgroundOutline=1;size=15;fillColor=#dae8fc;strokeColor=#6c8ebf;" parent="1" vertex="1">
          <mxGeometry x="85" y="420" width="70" height="80" as="geometry" />
        </mxCell>
        <mxCell id="aRfbpxfdnNTo8kCvjEgf-74" value="" style="shape=cylinder3;whiteSpace=wrap;html=1;boundedLbl=1;backgroundOutline=1;size=15;fillColor=#dae8fc;strokeColor=#6c8ebf;" parent="1" vertex="1">
          <mxGeometry x="85" y="640" width="70" height="80" as="geometry" />
        </mxCell>
        <mxCell id="aRfbpxfdnNTo8kCvjEgf-75" value="" style="whiteSpace=wrap;html=1;shape=mxgraph.basic.isocube;isoAngle=15;fillColor=#e1d5e7;strokeColor=#9673a6;" parent="1" vertex="1">
          <mxGeometry x="250" y="640" width="80" height="80" as="geometry" />
        </mxCell>
        <mxCell id="aRfbpxfdnNTo8kCvjEgf-76" value="SFDB" style="text;html=1;strokeColor=none;fillColor=none;align=center;verticalAlign=middle;whiteSpace=wrap;rounded=0;" parent="1" vertex="1">
          <mxGeometry x="97.5" y="720" width="45" height="30" as="geometry" />
        </mxCell>
        <mxCell id="aRfbpxfdnNTo8kCvjEgf-79" value="" style="endArrow=classic;startArrow=classic;html=1;exitX=1;exitY=0.5;exitDx=0;exitDy=0;exitPerimeter=0;entryX=0;entryY=0.5;entryDx=0;entryDy=0;entryPerimeter=0;" parent="1" source="aRfbpxfdnNTo8kCvjEgf-74" target="aRfbpxfdnNTo8kCvjEgf-75" edge="1">
          <mxGeometry width="50" height="50" relative="1" as="geometry">
            <mxPoint x="160" y="710" as="sourcePoint" />
            <mxPoint x="210" y="660" as="targetPoint" />
          </mxGeometry>
        </mxCell>
        <mxCell id="aRfbpxfdnNTo8kCvjEgf-80" value="Web" style="text;html=1;strokeColor=none;fillColor=none;align=center;verticalAlign=middle;whiteSpace=wrap;rounded=0;" parent="1" vertex="1">
          <mxGeometry x="270" y="725" width="40" height="20" as="geometry" />
        </mxCell>
        <mxCell id="aRfbpxfdnNTo8kCvjEgf-82" value="" style="outlineConnect=0;fontColor=#232F3E;gradientColor=none;fillColor=#232F3E;strokeColor=none;dashed=0;verticalLabelPosition=bottom;verticalAlign=top;align=center;html=1;fontSize=12;fontStyle=0;aspect=fixed;pointerEvents=1;shape=mxgraph.aws4.user;" parent="1" vertex="1">
          <mxGeometry x="545.77" y="650.5" width="59" height="59" as="geometry" />
        </mxCell>
        <mxCell id="aRfbpxfdnNTo8kCvjEgf-83" value="" style="endArrow=classic;html=1;entryX=1;entryY=0.5;entryDx=0;entryDy=0;entryPerimeter=0;" parent="1" source="aRfbpxfdnNTo8kCvjEgf-82" target="aRfbpxfdnNTo8kCvjEgf-75" edge="1">
          <mxGeometry width="50" height="50" relative="1" as="geometry">
            <mxPoint x="370" y="710" as="sourcePoint" />
            <mxPoint x="420" y="660" as="targetPoint" />
          </mxGeometry>
        </mxCell>
        <mxCell id="aRfbpxfdnNTo8kCvjEgf-84" value="Operator" style="text;html=1;strokeColor=none;fillColor=none;align=center;verticalAlign=middle;whiteSpace=wrap;rounded=0;" parent="1" vertex="1">
          <mxGeometry x="548.16" y="709.5" width="54.23" height="20.5" as="geometry" />
        </mxCell>
        <mxCell id="aRfbpxfdnNTo8kCvjEgf-85" value="閲覧" style="text;html=1;strokeColor=none;fillColor=none;align=center;verticalAlign=middle;whiteSpace=wrap;rounded=0;" parent="1" vertex="1">
          <mxGeometry x="370" y="650.5" width="46" height="29.5" as="geometry" />
        </mxCell>
        <mxCell id="aRfbpxfdnNTo8kCvjEgf-89" value="" style="outlineConnect=0;fontColor=#232F3E;gradientColor=none;fillColor=#232F3E;strokeColor=none;dashed=0;verticalLabelPosition=bottom;verticalAlign=top;align=center;html=1;fontSize=12;fontStyle=0;aspect=fixed;pointerEvents=1;shape=mxgraph.aws4.user;" parent="1" vertex="1">
          <mxGeometry x="-120" y="50.5" width="59" height="59" as="geometry" />
        </mxCell>
        <mxCell id="aRfbpxfdnNTo8kCvjEgf-90" value="" style="endArrow=classic;html=1;entryX=0.25;entryY=0.125;entryDx=0;entryDy=0;entryPerimeter=0;" parent="1" source="aRfbpxfdnNTo8kCvjEgf-89" target="aRfbpxfdnNTo8kCvjEgf-3" edge="1">
          <mxGeometry width="50" height="50" relative="1" as="geometry">
            <mxPoint x="-50" y="120" as="sourcePoint" />
            <mxPoint x="80" y="160" as="targetPoint" />
          </mxGeometry>
        </mxCell>
        <mxCell id="aRfbpxfdnNTo8kCvjEgf-91" value="閲覧" style="text;html=1;strokeColor=none;fillColor=none;align=center;verticalAlign=middle;whiteSpace=wrap;rounded=0;" parent="1" vertex="1">
          <mxGeometry x="-30" y="109.5" width="40" height="20" as="geometry" />
        </mxCell>
        <mxCell id="aRfbpxfdnNTo8kCvjEgf-93" value="User" style="text;html=1;strokeColor=none;fillColor=none;align=center;verticalAlign=middle;whiteSpace=wrap;rounded=0;" parent="1" vertex="1">
          <mxGeometry x="-110.5" y="30.5" width="40" height="20" as="geometry" />
        </mxCell>
        <mxCell id="aRfbpxfdnNTo8kCvjEgf-94" value="" style="outlineConnect=0;fontColor=#232F3E;gradientColor=none;fillColor=#232F3E;strokeColor=none;dashed=0;verticalLabelPosition=bottom;verticalAlign=top;align=center;html=1;fontSize=12;fontStyle=0;aspect=fixed;pointerEvents=1;shape=mxgraph.aws4.user;" parent="1" vertex="1">
          <mxGeometry x="-280" y="650.5" width="59" height="59" as="geometry" />
        </mxCell>
        <mxCell id="aRfbpxfdnNTo8kCvjEgf-95" value="Operator" style="text;html=1;strokeColor=none;fillColor=none;align=center;verticalAlign=middle;whiteSpace=wrap;rounded=0;" parent="1" vertex="1">
          <mxGeometry x="-277.61" y="709.5" width="54.23" height="20.5" as="geometry" />
        </mxCell>
        <mxCell id="aRfbpxfdnNTo8kCvjEgf-96" value="" style="endArrow=classic;html=1;entryX=0.213;entryY=0.863;entryDx=0;entryDy=0;entryPerimeter=0;" parent="1" target="aRfbpxfdnNTo8kCvjEgf-59" edge="1">
          <mxGeometry width="50" height="50" relative="1" as="geometry">
            <mxPoint x="-230" y="650" as="sourcePoint" />
            <mxPoint x="-180" y="600" as="targetPoint" />
          </mxGeometry>
        </mxCell>
        <mxCell id="aRfbpxfdnNTo8kCvjEgf-97" value="閲覧" style="text;html=1;strokeColor=none;fillColor=none;align=center;verticalAlign=middle;whiteSpace=wrap;rounded=0;" parent="1" vertex="1">
          <mxGeometry x="-180" y="595" width="40" height="20" as="geometry" />
        </mxCell>
        <mxCell id="EgKjPaB5UBzgI7fWvOza-4" value="" style="whiteSpace=wrap;html=1;shape=mxgraph.basic.isocube;isoAngle=15;fillColor=#e1d5e7;strokeColor=#9673a6;" vertex="1" parent="1">
          <mxGeometry x="-60.99999999999998" y="640" width="80" height="80" as="geometry" />
        </mxCell>
        <mxCell id="EgKjPaB5UBzgI7fWvOza-5" value="SFAPI" style="text;html=1;strokeColor=none;fillColor=none;align=center;verticalAlign=middle;whiteSpace=wrap;rounded=0;" vertex="1" parent="1">
          <mxGeometry x="-41" y="725" width="40" height="20" as="geometry" />
        </mxCell>
        <mxCell id="EgKjPaB5UBzgI7fWvOza-6" value="" style="endArrow=classic;html=1;rounded=0;entryX=0;entryY=0.5;entryDx=0;entryDy=0;entryPerimeter=0;" edge="1" parent="1" target="aRfbpxfdnNTo8kCvjEgf-74">
          <mxGeometry width="50" height="50" relative="1" as="geometry">
            <mxPoint x="20" y="680" as="sourcePoint" />
            <mxPoint x="80" y="680" as="targetPoint" />
          </mxGeometry>
        </mxCell>
        <mxCell id="EgKjPaB5UBzgI7fWvOza-7" value="" style="endArrow=classic;html=1;rounded=0;entryX=0.5;entryY=0;entryDx=0;entryDy=0;entryPerimeter=0;" edge="1" parent="1" target="EgKjPaB5UBzgI7fWvOza-4">
          <mxGeometry width="50" height="50" relative="1" as="geometry">
            <mxPoint x="100" y="310" as="sourcePoint" />
            <mxPoint x="90" y="590" as="targetPoint" />
          </mxGeometry>
        </mxCell>
      </root>
    </mxGraphModel>
  </diagram>
</mxfile>
